<svg id="clases_vivo" xmlns="http://www.w3.org/2000/svg" xmlns:xlink="http://www.w3.org/1999/xlink" width="120" height="120" viewBox="0 0 120 120">
  <defs>
    <filter id="Trazado_533" x="0" y="0" width="120" height="120" filterUnits="userSpaceOnUse">
      <feOffset input="SourceAlpha"/>
      <feGaussianBlur stdDeviation="5" result="blur"/>
      <feFlood flood-opacity="0.702" result="color"/>
      <feComposite operator="out" in="SourceGraphic" in2="blur"/>
      <feComposite operator="in" in="color"/>
      <feComposite operator="in" in2="SourceGraphic"/>
    </filter>
  </defs>
  <g data-type="innerShadowGroup">
    <g id="Trazado_533-2" data-name="Trazado 533" fill="#fff">
      <path d="M 60 119 C 52.03461837768555 119 44.30801773071289 117.440185546875 37.03485107421875 114.363899230957 C 33.53906631469727 112.8853149414062 30.16731643676758 111.0551681518555 27.01323318481445 108.92431640625 C 23.88886642456055 106.8135299682617 20.9508171081543 104.3894195556641 18.28070068359375 101.7192993164062 C 15.61058330535889 99.04918670654297 13.18646621704102 96.11112976074219 11.07568359375 92.98676300048828 C 8.944833755493164 89.83267974853516 7.114683151245117 86.46092987060547 5.636099815368652 82.96514892578125 C 2.559816598892212 75.69198608398438 1 67.96538543701172 1 60 C 1 52.03461837768555 2.559816598892212 44.30801773071289 5.636099815368652 37.03485107421875 C 7.114683151245117 33.53906631469727 8.944833755493164 30.16731643676758 11.07568359375 27.01323318481445 C 13.18646621704102 23.88886642456055 15.61058330535889 20.9508171081543 18.28070068359375 18.28070068359375 C 20.9508171081543 15.61058330535889 23.88886642456055 13.18646621704102 27.01323318481445 11.07568359375 C 30.16731643676758 8.944833755493164 33.53906631469727 7.114683151245117 37.03485107421875 5.636099815368652 C 44.30801773071289 2.559816598892212 52.03461837768555 1 60 1 C 67.96538543701172 1 75.69198608398438 2.559816598892212 82.96514892578125 5.636099815368652 C 86.46092987060547 7.114683151245117 89.83267974853516 8.944833755493164 92.98676300048828 11.07568359375 C 96.11112976074219 13.18646621704102 99.04918670654297 15.61058330535889 101.7192993164062 18.28070068359375 C 104.3894195556641 20.9508171081543 106.8135299682617 23.88886642456055 108.92431640625 27.01323318481445 C 111.0551681518555 30.16731643676758 112.8853149414062 33.53906631469727 114.363899230957 37.03485107421875 C 117.440185546875 44.30801773071289 119 52.03461837768555 119 60 C 119 67.96538543701172 117.440185546875 75.69198608398438 114.363899230957 82.96514892578125 C 112.8853149414062 86.46092987060547 111.0551681518555 89.83267974853516 108.92431640625 92.98676300048828 C 106.8135299682617 96.11112976074219 104.3894195556641 99.04918670654297 101.7192993164062 101.7192993164062 C 99.04918670654297 104.3894195556641 96.11112976074219 106.8135299682617 92.98676300048828 108.92431640625 C 89.83267974853516 111.0551681518555 86.46092987060547 112.8853149414062 82.96514892578125 114.363899230957 C 75.69198608398438 117.440185546875 67.96538543701172 119 60 119 Z" stroke="none"/>
      <path d="M 60 2 C 52.16916656494141 2 44.57363128662109 3.533233642578125 37.42440032958984 6.557098388671875 C 33.98808288574219 8.010551452636719 30.67361450195312 9.809600830078125 27.57305145263672 11.904296875 C 24.50141906738281 13.97944641113281 21.6129150390625 16.36268615722656 18.98780059814453 18.98780059814453 C 16.36268615722656 21.6129150390625 13.97944641113281 24.50141906738281 11.904296875 27.57305145263672 C 9.809600830078125 30.67361450195312 8.010551452636719 33.98808288574219 6.557098388671875 37.42440032958984 C 3.533233642578125 44.57363128662109 2 52.16916656494141 2 60 C 2 67.83083343505859 3.533233642578125 75.42636108398438 6.557098388671875 82.57559967041016 C 8.010551452636719 86.01191711425781 9.809600830078125 89.32638549804688 11.904296875 92.42694854736328 C 13.97944641113281 95.49858093261719 16.36268615722656 98.3870849609375 18.98780059814453 101.0121994018555 C 21.6129150390625 103.6373138427734 24.50141906738281 106.0205535888672 27.57305145263672 108.095703125 C 30.67361450195312 110.1903991699219 33.98808288574219 111.9894485473633 37.42440032958984 113.4429016113281 C 44.57363128662109 116.4667663574219 52.16916656494141 118 60 118 C 67.83083343505859 118 75.42636108398438 116.4667663574219 82.57559967041016 113.4429016113281 C 86.01191711425781 111.9894485473633 89.32638549804688 110.1903991699219 92.42694854736328 108.095703125 C 95.49858093261719 106.0205535888672 98.3870849609375 103.6373138427734 101.0121994018555 101.0121994018555 C 103.6373138427734 98.3870849609375 106.0205535888672 95.49858093261719 108.095703125 92.42694854736328 C 110.1903991699219 89.32638549804688 111.9894485473633 86.01191711425781 113.4429016113281 82.57559967041016 C 116.4667663574219 75.42636108398438 118 67.83083343505859 118 60 C 118 52.16916656494141 116.4667663574219 44.57363128662109 113.4429016113281 37.42440032958984 C 111.9894485473633 33.98808288574219 110.1903991699219 30.67361450195312 108.095703125 27.57305145263672 C 106.0205535888672 24.50141906738281 103.6373138427734 21.6129150390625 101.0121994018555 18.98780059814453 C 98.3870849609375 16.36268615722656 95.49858093261719 13.97944641113281 92.42694854736328 11.904296875 C 89.32638549804688 9.809600830078125 86.01191711425781 8.010551452636719 82.57559967041016 6.557098388671875 C 75.42636108398438 3.533233642578125 67.83083343505859 2 60 2 M 60 0 C 93.1370849609375 0 120 26.8629150390625 120 60 C 120 93.1370849609375 93.1370849609375 120 60 120 C 26.8629150390625 120 0 93.1370849609375 0 60 C 0 26.8629150390625 26.8629150390625 0 60 0 Z" stroke="none"/>
    </g>
    <g transform="matrix(1, 0, 0, 1, 0, 0)" filter="url(#Trazado_533)">
      <g id="Trazado_533-3" data-name="Trazado 533" fill="#fff">
        <path d="M 60 119 C 52.03461837768555 119 44.30801773071289 117.440185546875 37.03485107421875 114.363899230957 C 33.53906631469727 112.8853149414062 30.16731643676758 111.0551681518555 27.01323318481445 108.92431640625 C 23.88886642456055 106.8135299682617 20.9508171081543 104.3894195556641 18.28070068359375 101.7192993164062 C 15.61058330535889 99.04918670654297 13.18646621704102 96.11112976074219 11.07568359375 92.98676300048828 C 8.944833755493164 89.83267974853516 7.114683151245117 86.46092987060547 5.636099815368652 82.96514892578125 C 2.559816598892212 75.69198608398438 1 67.96538543701172 1 60 C 1 52.03461837768555 2.559816598892212 44.30801773071289 5.636099815368652 37.03485107421875 C 7.114683151245117 33.53906631469727 8.944833755493164 30.16731643676758 11.07568359375 27.01323318481445 C 13.18646621704102 23.88886642456055 15.61058330535889 20.9508171081543 18.28070068359375 18.28070068359375 C 20.9508171081543 15.61058330535889 23.88886642456055 13.18646621704102 27.01323318481445 11.07568359375 C 30.16731643676758 8.944833755493164 33.53906631469727 7.114683151245117 37.03485107421875 5.636099815368652 C 44.30801773071289 2.559816598892212 52.03461837768555 1 60 1 C 67.96538543701172 1 75.69198608398438 2.559816598892212 82.96514892578125 5.636099815368652 C 86.46092987060547 7.114683151245117 89.83267974853516 8.944833755493164 92.98676300048828 11.07568359375 C 96.11112976074219 13.18646621704102 99.04918670654297 15.61058330535889 101.7192993164062 18.28070068359375 C 104.3894195556641 20.9508171081543 106.8135299682617 23.88886642456055 108.92431640625 27.01323318481445 C 111.0551681518555 30.16731643676758 112.8853149414062 33.53906631469727 114.363899230957 37.03485107421875 C 117.440185546875 44.30801773071289 119 52.03461837768555 119 60 C 119 67.96538543701172 117.440185546875 75.69198608398438 114.363899230957 82.96514892578125 C 112.8853149414062 86.46092987060547 111.0551681518555 89.83267974853516 108.92431640625 92.98676300048828 C 106.8135299682617 96.11112976074219 104.3894195556641 99.04918670654297 101.7192993164062 101.7192993164062 C 99.04918670654297 104.3894195556641 96.11112976074219 106.8135299682617 92.98676300048828 108.92431640625 C 89.83267974853516 111.0551681518555 86.46092987060547 112.8853149414062 82.96514892578125 114.363899230957 C 75.69198608398438 117.440185546875 67.96538543701172 119 60 119 Z" stroke="none"/>
        <path d="M 60 2 C 52.16916656494141 2 44.57363128662109 3.533233642578125 37.42440032958984 6.557098388671875 C 33.98808288574219 8.010551452636719 30.67361450195312 9.809600830078125 27.57305145263672 11.904296875 C 24.50141906738281 13.97944641113281 21.6129150390625 16.36268615722656 18.98780059814453 18.98780059814453 C 16.36268615722656 21.6129150390625 13.97944641113281 24.50141906738281 11.904296875 27.57305145263672 C 9.809600830078125 30.67361450195312 8.010551452636719 33.98808288574219 6.557098388671875 37.42440032958984 C 3.533233642578125 44.57363128662109 2 52.16916656494141 2 60 C 2 67.83083343505859 3.533233642578125 75.42636108398438 6.557098388671875 82.57559967041016 C 8.010551452636719 86.01191711425781 9.809600830078125 89.32638549804688 11.904296875 92.42694854736328 C 13.97944641113281 95.49858093261719 16.36268615722656 98.3870849609375 18.98780059814453 101.0121994018555 C 21.6129150390625 103.6373138427734 24.50141906738281 106.0205535888672 27.57305145263672 108.095703125 C 30.67361450195312 110.1903991699219 33.98808288574219 111.9894485473633 37.42440032958984 113.4429016113281 C 44.57363128662109 116.4667663574219 52.16916656494141 118 60 118 C 67.83083343505859 118 75.42636108398438 116.4667663574219 82.57559967041016 113.4429016113281 C 86.01191711425781 111.9894485473633 89.32638549804688 110.1903991699219 92.42694854736328 108.095703125 C 95.49858093261719 106.0205535888672 98.3870849609375 103.6373138427734 101.0121994018555 101.0121994018555 C 103.6373138427734 98.3870849609375 106.0205535888672 95.49858093261719 108.095703125 92.42694854736328 C 110.1903991699219 89.32638549804688 111.9894485473633 86.01191711425781 113.4429016113281 82.57559967041016 C 116.4667663574219 75.42636108398438 118 67.83083343505859 118 60 C 118 52.16916656494141 116.4667663574219 44.57363128662109 113.4429016113281 37.42440032958984 C 111.9894485473633 33.98808288574219 110.1903991699219 30.67361450195312 108.095703125 27.57305145263672 C 106.0205535888672 24.50141906738281 103.6373138427734 21.6129150390625 101.0121994018555 18.98780059814453 C 98.3870849609375 16.36268615722656 95.49858093261719 13.97944641113281 92.42694854736328 11.904296875 C 89.32638549804688 9.809600830078125 86.01191711425781 8.010551452636719 82.57559967041016 6.557098388671875 C 75.42636108398438 3.533233642578125 67.83083343505859 2 60 2 M 60 0 C 93.1370849609375 0 120 26.8629150390625 120 60 C 120 93.1370849609375 93.1370849609375 120 60 120 C 26.8629150390625 120 0 93.1370849609375 0 60 C 0 26.8629150390625 26.8629150390625 0 60 0 Z" stroke="none"/>
      </g>
    </g>
    <g id="Trazado_533-4" data-name="Trazado 533" fill="none">
      <path d="M 60 119 C 52.03461837768555 119 44.30801773071289 117.440185546875 37.03485107421875 114.363899230957 C 33.53906631469727 112.8853149414062 30.16731643676758 111.0551681518555 27.01323318481445 108.92431640625 C 23.88886642456055 106.8135299682617 20.9508171081543 104.3894195556641 18.28070068359375 101.7192993164062 C 15.61058330535889 99.04918670654297 13.18646621704102 96.11112976074219 11.07568359375 92.98676300048828 C 8.944833755493164 89.83267974853516 7.114683151245117 86.46092987060547 5.636099815368652 82.96514892578125 C 2.559816598892212 75.69198608398438 1 67.96538543701172 1 60 C 1 52.03461837768555 2.559816598892212 44.30801773071289 5.636099815368652 37.03485107421875 C 7.114683151245117 33.53906631469727 8.944833755493164 30.16731643676758 11.07568359375 27.01323318481445 C 13.18646621704102 23.88886642456055 15.61058330535889 20.9508171081543 18.28070068359375 18.28070068359375 C 20.9508171081543 15.61058330535889 23.88886642456055 13.18646621704102 27.01323318481445 11.07568359375 C 30.16731643676758 8.944833755493164 33.53906631469727 7.114683151245117 37.03485107421875 5.636099815368652 C 44.30801773071289 2.559816598892212 52.03461837768555 1 60 1 C 67.96538543701172 1 75.69198608398438 2.559816598892212 82.96514892578125 5.636099815368652 C 86.46092987060547 7.114683151245117 89.83267974853516 8.944833755493164 92.98676300048828 11.07568359375 C 96.11112976074219 13.18646621704102 99.04918670654297 15.61058330535889 101.7192993164062 18.28070068359375 C 104.3894195556641 20.9508171081543 106.8135299682617 23.88886642456055 108.92431640625 27.01323318481445 C 111.0551681518555 30.16731643676758 112.8853149414062 33.53906631469727 114.363899230957 37.03485107421875 C 117.440185546875 44.30801773071289 119 52.03461837768555 119 60 C 119 67.96538543701172 117.440185546875 75.69198608398438 114.363899230957 82.96514892578125 C 112.8853149414062 86.46092987060547 111.0551681518555 89.83267974853516 108.92431640625 92.98676300048828 C 106.8135299682617 96.11112976074219 104.3894195556641 99.04918670654297 101.7192993164062 101.7192993164062 C 99.04918670654297 104.3894195556641 96.11112976074219 106.8135299682617 92.98676300048828 108.92431640625 C 89.83267974853516 111.0551681518555 86.46092987060547 112.8853149414062 82.96514892578125 114.363899230957 C 75.69198608398438 117.440185546875 67.96538543701172 119 60 119 Z" stroke="none"/>
      <path d="M 60 2 C 52.16916656494141 2 44.57363128662109 3.533233642578125 37.42440032958984 6.557098388671875 C 33.98808288574219 8.010551452636719 30.67361450195312 9.809600830078125 27.57305145263672 11.904296875 C 24.50141906738281 13.97944641113281 21.6129150390625 16.36268615722656 18.98780059814453 18.98780059814453 C 16.36268615722656 21.6129150390625 13.97944641113281 24.50141906738281 11.904296875 27.57305145263672 C 9.809600830078125 30.67361450195312 8.010551452636719 33.98808288574219 6.557098388671875 37.42440032958984 C 3.533233642578125 44.57363128662109 2 52.16916656494141 2 60 C 2 67.83083343505859 3.533233642578125 75.42636108398438 6.557098388671875 82.57559967041016 C 8.010551452636719 86.01191711425781 9.809600830078125 89.32638549804688 11.904296875 92.42694854736328 C 13.97944641113281 95.49858093261719 16.36268615722656 98.3870849609375 18.98780059814453 101.0121994018555 C 21.6129150390625 103.6373138427734 24.50141906738281 106.0205535888672 27.57305145263672 108.095703125 C 30.67361450195312 110.1903991699219 33.98808288574219 111.9894485473633 37.42440032958984 113.4429016113281 C 44.57363128662109 116.4667663574219 52.16916656494141 118 60 118 C 67.83083343505859 118 75.42636108398438 116.4667663574219 82.57559967041016 113.4429016113281 C 86.01191711425781 111.9894485473633 89.32638549804688 110.1903991699219 92.42694854736328 108.095703125 C 95.49858093261719 106.0205535888672 98.3870849609375 103.6373138427734 101.0121994018555 101.0121994018555 C 103.6373138427734 98.3870849609375 106.0205535888672 95.49858093261719 108.095703125 92.42694854736328 C 110.1903991699219 89.32638549804688 111.9894485473633 86.01191711425781 113.4429016113281 82.57559967041016 C 116.4667663574219 75.42636108398438 118 67.83083343505859 118 60 C 118 52.16916656494141 116.4667663574219 44.57363128662109 113.4429016113281 37.42440032958984 C 111.9894485473633 33.98808288574219 110.1903991699219 30.67361450195312 108.095703125 27.57305145263672 C 106.0205535888672 24.50141906738281 103.6373138427734 21.6129150390625 101.0121994018555 18.98780059814453 C 98.3870849609375 16.36268615722656 95.49858093261719 13.97944641113281 92.42694854736328 11.904296875 C 89.32638549804688 9.809600830078125 86.01191711425781 8.010551452636719 82.57559967041016 6.557098388671875 C 75.42636108398438 3.533233642578125 67.83083343505859 2 60 2 M 60 0 C 93.1370849609375 0 120 26.8629150390625 120 60 C 120 93.1370849609375 93.1370849609375 120 60 120 C 26.8629150390625 120 0 93.1370849609375 0 60 C 0 26.8629150390625 26.8629150390625 0 60 0 Z" stroke="none" fill="#f31159"/>
    </g>
  </g>
  <path id="groups_FILL0_wght400_GRAD0_opsz48" d="M0,52V47.583q0-3.25,3.5-5.25a17.992,17.992,0,0,1,9-2q1.083,0,2,.042a13.721,13.721,0,0,1,1.833.208,13.569,13.569,0,0,0-1.333,6V52Zm20,0V46.583q0-5.417,5.542-8.75T40,34.5q9,0,14.5,3.333t5.5,8.75V52Zm45,0V46.583a15.926,15.926,0,0,0-.292-3.125,12.491,12.491,0,0,0-.958-2.875,13.721,13.721,0,0,1,1.833-.208q.917-.042,1.917-.042a17.9,17.9,0,0,1,9.083,2q3.417,2,3.417,5.25V52ZM12.5,37.833a5.621,5.621,0,0,1-4.125-1.708,5.834,5.834,0,0,1,0-8.25A5.621,5.621,0,0,1,12.5,26.167a5.834,5.834,0,0,1,4.125,9.958A5.621,5.621,0,0,1,12.5,37.833Zm55,0a5.834,5.834,0,0,1-4.125-9.958,5.834,5.834,0,0,1,8.25,8.25A5.621,5.621,0,0,1,67.5,37.833ZM40,32A9.958,9.958,0,0,1,30,22a9.6,9.6,0,0,1,2.917-7.125A9.715,9.715,0,0,1,40,12,9.822,9.822,0,0,1,50,22a9.715,9.715,0,0,1-2.875,7.083A9.6,9.6,0,0,1,40,32Z" transform="translate(22 28)" fill="#f31159"/>
</svg>
