<svg id="i_apache" xmlns="http://www.w3.org/2000/svg" xmlns:xlink="http://www.w3.org/1999/xlink" width="71.561" height="71.561" viewBox="0 0 71.561 71.561">
  <defs>
    <clipPath id="clip-path">
      <path id="Trazado_76" data-name="Trazado 76" d="M494.367,147.324l-.025.027c.011-.013.02-.022.025-.027m-.884-2.271.006-.011a17.253,17.253,0,0,0-3.441,3.447l1.347,2.531a33.746,33.746,0,0,1,2.867-3.584,29.967,29.967,0,0,0-2.7,3.638,51.553,51.553,0,0,0,5.244-.644c.519-2.877-.505-4.18-.505-4.18s-.883-1.419-2.04-1.419a1.5,1.5,0,0,0-.774.222" fill="none"/>
    </clipPath>
    <linearGradient id="linear-gradient" x1="-46.315" y1="9.035" x2="-46.221" y2="9.035" gradientUnits="objectBoundingBox">
      <stop offset="0" stop-color="#f59723"/>
      <stop offset="0.312" stop-color="#f69822"/>
      <stop offset="0.838" stop-color="#e87726"/>
      <stop offset="1" stop-color="#e87726"/>
    </linearGradient>
    <clipPath id="clip-path-2">
      <path id="Trazado_82" data-name="Trazado 82" d="M489.748,148.864c-.391.484-.792,1-1.207,1.55-.467.619-.945,1.282-1.435,1.976-.447.641-.906,1.312-1.365,2.009q-.586.888-1.167,1.825c-.013.021-.027.046-.04.07l1.756,3.448c.371-.747.754-1.477,1.136-2.188q.615-1.145,1.242-2.23c.435-.754.877-1.481,1.323-2.187.024-.041.055-.084.079-.125.439-.693.884-1.36,1.33-1.995l-1.346-2.531c-.1.123-.2.248-.306.378" fill="none"/>
    </clipPath>
    <linearGradient id="linear-gradient-2" x1="-30.915" y1="5.309" x2="-30.85" y2="5.309" gradientUnits="objectBoundingBox">
      <stop offset="0" stop-color="#9c2063"/>
      <stop offset="0.323" stop-color="#9c2063"/>
      <stop offset="0.63" stop-color="#c82037"/>
      <stop offset="0.751" stop-color="#cc2135"/>
      <stop offset="1" stop-color="#e87726"/>
    </linearGradient>
    <clipPath id="clip-path-3">
      <path id="Trazado_84" data-name="Trazado 84" d="M480.954,176.458l-1.42.155c-.047.12-.089.237-.135.356l.025-.006c-.233.633-.467,1.282-.7,1.941a.088.088,0,0,1-.01.027c-.033.093-.069.188-.1.28-.159.445-.3.847-.61,1.756a3.539,3.539,0,0,1,1.325,1.554,2.788,2.788,0,0,0-.918-1.934c2.549.115,4.753-.526,5.872-2.377a4.9,4.9,0,0,0,.279-.524,2.462,2.462,0,0,1-2.363.86l-.008,0,.008,0a6.8,6.8,0,0,0,3.442-2.8c.185-.3.369-.622.554-.983a5.567,5.567,0,0,1-5.243,1.691" fill="none"/>
    </clipPath>
    <linearGradient id="linear-gradient-3" x1="-33.543" y1="4.412" x2="-33.472" y2="4.412" gradientUnits="objectBoundingBox">
      <stop offset="0" stop-color="#282661"/>
      <stop offset="0.095" stop-color="#662e8c"/>
      <stop offset="0.788" stop-color="#9e2064"/>
      <stop offset="0.949" stop-color="#cc2032"/>
      <stop offset="1" stop-color="#cc2032"/>
    </linearGradient>
    <clipPath id="clip-path-4">
      <path id="Trazado_86" data-name="Trazado 86" d="M484.454,156.291c-.438.709-.874,1.435-1.3,2.175q-.606,1.052-1.188,2.139c-.325.611-.644,1.224-.958,1.848-.063.125-.124.253-.187.378-.381.784-.726,1.537-1.04,2.267-.354.822-.666,1.61-.937,2.356-.18.491-.341.964-.491,1.42-.123.388-.238.779-.352,1.167q-.395,1.368-.675,2.742l1.765,3.475q.348-.93.718-1.884c.074-.182.139-.361.21-.535v-.025c.306-.786.623-1.585.945-2.389q.466-1.156.955-2.323c.329-.777.662-1.561,1-2.343s.7-1.588,1.062-2.378.719-1.559,1.088-2.324c.131-.277.268-.553.4-.828.245-.5.492-1,.743-1.489h0l-1.756-3.448h0" fill="none"/>
    </clipPath>
    <linearGradient id="linear-gradient-4" x1="-19.357" y1="3.01" x2="-19.316" y2="3.01" xlink:href="#linear-gradient-2"/>
    <clipPath id="clip-path-5">
      <path id="Trazado_88" data-name="Trazado 88" d="M477.365,172.9l.01-.008a26.625,26.625,0,0,0-.459,3.312l-.008.113a6.974,6.974,0,0,0-2.02-1.724,9.757,9.757,0,0,1,1.974,4.507,4.507,4.507,0,0,1-2.231-.377,4.5,4.5,0,0,0,1.906,1.151,5.486,5.486,0,0,0-2.646,1.311,5.694,5.694,0,0,1,3.14-.573c-1.206,3.394-2.414,7.139-3.632,11.13a1.052,1.052,0,0,0,.716-.692c.216-.72,1.644-5.457,3.878-11.646.065-.176.128-.356.194-.532.016-.052.035-.1.054-.147.235-.651.483-1.316.734-2,.058-.155.116-.309.176-.464l0-.008-1.768-3.475c0,.035-.013.076-.021.117" fill="none"/>
    </clipPath>
    <linearGradient id="linear-gradient-5" x1="-22.9" y1="2.688" x2="-22.851" y2="2.688" xlink:href="#linear-gradient-3"/>
    <clipPath id="clip-path-6">
      <path id="Trazado_90" data-name="Trazado 90" d="M493.18,158.8a6.742,6.742,0,0,1-1.958.663c-.008,0-.019,0-.03,0-.068.011-.131.022-.2.03l.033-.016-4.452.485a.129.129,0,0,1-.017.047l-.005.014c-.052.1-.1.206-.153.308-.153.313-.3.631-.464.956-.17.353-.339.711-.511,1.081-.087.185-.175.372-.262.562-.263.567-.527,1.154-.8,1.759-.331.741-.673,1.515-1.014,2.319-.325.765-.66,1.555-.994,2.375q-.48,1.164-.97,2.4-.438,1.1-.882,2.275c-.013.035-.027.075-.041.11q-.451,1.189-.91,2.44h0l1.42-.154c-.028-.006-.057-.009-.084-.014a10.03,10.03,0,0,0,5.407-3.04,13.355,13.355,0,0,0,1.844-2.554,22.7,22.7,0,0,0,1.191-2.46q.49-1.185.945-2.574a5.18,5.18,0,0,1-1.328.459c-.087.019-.174.035-.265.051s-.18.031-.273.042l0,0a6.148,6.148,0,0,0,3.3-3.2,5.61,5.61,0,0,1-1.9.828c-.11.025-.221.044-.337.063-.023,0-.049.007-.074.011a6.344,6.344,0,0,0,1.41-.785,2.969,2.969,0,0,0,.248-.2c.124-.106.238-.217.353-.331.071-.076.14-.152.208-.23a5.481,5.481,0,0,0,.442-.606c.041-.068.085-.133.123-.2.054-.1.1-.2.153-.3.221-.44.4-.836.538-1.18.071-.174.131-.332.186-.484.021-.059.04-.117.06-.173.057-.166.1-.313.136-.443a3.937,3.937,0,0,0,.1-.462,1.5,1.5,0,0,1-.186.125" fill="none"/>
    </clipPath>
    <linearGradient id="linear-gradient-6" x1="-17.107" y1="2.81" x2="-17.071" y2="2.81" xlink:href="#linear-gradient-2"/>
    <clipPath id="clip-path-7">
      <path id="Trazado_92" data-name="Trazado 92" d="M491.564,151.117h.013c-.4.606-.828,1.292-1.3,2.071-.025.039-.052.084-.073.122-.4.673-.828,1.412-1.282,2.223-.387.7-.792,1.45-1.212,2.257q-.551,1.053-1.133,2.239l4.451-.485a5.394,5.394,0,0,0,2.442-1.909c.147-.214.3-.438.448-.671.458-.711.906-1.493,1.308-2.272a23.42,23.42,0,0,0,.991-2.169,11.085,11.085,0,0,0,.394-1.173c.082-.306.145-.6.193-.879a49.9,49.9,0,0,1-5.243.646" fill="none"/>
    </clipPath>
    <linearGradient id="linear-gradient-7" x1="-27.458" y1="5.006" x2="-27.401" y2="5.006" xlink:href="#linear-gradient-2"/>
    <clipPath id="clip-path-8">
      <path id="Trazado_96" data-name="Trazado 96" d="M488.409,166.39a2.6,2.6,0,0,0,.273-.041c-.09.017-.18.03-.273.041" fill="none"/>
    </clipPath>
    <linearGradient id="linear-gradient-8" x1="-1603.735" y1="269.925" x2="-1600.451" y2="269.925" xlink:href="#linear-gradient-2"/>
    <clipPath id="clip-path-9">
      <path id="Trazado_100" data-name="Trazado 100" d="M489.42,164.1c.027,0,.057-.008.085-.014-.028,0-.055.011-.085.014" fill="none"/>
    </clipPath>
    <linearGradient id="linear-gradient-9" x1="-5108.996" y1="881.25" x2="-5098.557" y2="881.25" xlink:href="#linear-gradient-2"/>
    <clipPath id="clip-path-10">
      <path id="Trazado_103" data-name="Trazado 103" d="M489.42,164.1h0m0,0h0m0,0h0" fill="none"/>
    </clipPath>
    <linearGradient id="linear-gradient-10" x1="-276505.5" y1="31527.17" x2="-275940.531" y2="31527.17" xlink:href="#linear-gradient-2"/>
  </defs>
  <path id="Trazado_71" data-name="Trazado 71" d="M515.948,204.067H454.4a5.006,5.006,0,0,1-5.006-5.006V137.512a5.006,5.006,0,0,1,5.006-5.006h61.549a5.006,5.006,0,0,1,5.006,5.006v61.549a5.006,5.006,0,0,1-5.006,5.006" transform="translate(-449.393 -132.506)" fill="#fff"/>
  <g id="Grupo_58" data-name="Grupo 58" transform="translate(-449 -132.506)">
    <g id="Grupo_57" data-name="Grupo 57" clip-path="url(#clip-path)">
      <path id="Trazado_75" data-name="Trazado 75" d="M488.412,145.288l8.377-2.34,2.169,7.669-8.377,2.34Z" fill="url(#linear-gradient)"/>
    </g>
  </g>
  <g id="Grupo_62" data-name="Grupo 62" transform="translate(-449 -132.506)">
    <g id="Grupo_61" data-name="Grupo 61" clip-path="url(#clip-path-2)">
      <path id="Trazado_81" data-name="Trazado 81" d="M480.2,157.736l5.557-11.862,9.976,4.618-5.557,11.862Z" fill="url(#linear-gradient-2)"/>
    </g>
  </g>
  <g id="Grupo_64" data-name="Grupo 64" transform="translate(-449 -132.506)">
    <g id="Grupo_63" data-name="Grupo 63" clip-path="url(#clip-path-3)">
      <path id="Trazado_83" data-name="Trazado 83" d="M475.021,181.139l4.445-9.488,9.717,4.5-4.445,9.488Z" fill="url(#linear-gradient-3)"/>
    </g>
  </g>
  <g id="Grupo_66" data-name="Grupo 66" transform="translate(-449 -132.506)">
    <g id="Grupo_65" data-name="Grupo 65" clip-path="url(#clip-path-4)">
      <path id="Trazado_85" data-name="Trazado 85" d="M469.638,172.7l9.271-19.789,14.991,6.939-9.271,19.789Z" fill="url(#linear-gradient-4)"/>
    </g>
  </g>
  <g id="Grupo_68" data-name="Grupo 68" transform="translate(-449 -132.506)">
    <g id="Grupo_67" data-name="Grupo 67" clip-path="url(#clip-path-5)">
      <path id="Trazado_87" data-name="Trazado 87" d="M466.1,188.363l8.325-17.77,12.029,5.568-8.325,17.77Z" fill="url(#linear-gradient-5)"/>
    </g>
  </g>
  <g id="Grupo_70" data-name="Grupo 70" transform="translate(-449 -132.506)">
    <g id="Grupo_69" data-name="Grupo 69" clip-path="url(#clip-path-6)">
      <path id="Trazado_89" data-name="Trazado 89" d="M472.645,173.422l9.37-20,18.259,8.451-9.37,20Z" fill="url(#linear-gradient-6)"/>
    </g>
  </g>
  <g id="Grupo_72" data-name="Grupo 72" transform="translate(-449 -132.506)">
    <g id="Grupo_71" data-name="Grupo 71" clip-path="url(#clip-path-7)">
      <path id="Trazado_91" data-name="Trazado 91" d="M482.9,158.326l5.5-11.745,12.084,5.593-5.5,11.745Z" fill="url(#linear-gradient-7)"/>
    </g>
  </g>
  <g id="Grupo_79" data-name="Grupo 79" transform="translate(-449 -132.506)">
    <g id="Grupo_78" data-name="Grupo 78" clip-path="url(#clip-path-8)">
      <path id="Trazado_95" data-name="Trazado 95" d="M488.393,166.383l.064-.138.24.111-.064.138Z" fill="url(#linear-gradient-8)"/>
    </g>
  </g>
  <g id="Grupo_86" data-name="Grupo 86" transform="translate(-449 -132.506)">
    <g id="Grupo_85" data-name="Grupo 85" clip-path="url(#clip-path-9)">
      <path id="Trazado_99" data-name="Trazado 99" d="M489.415,164.094l.021-.044.075.035-.021.044Z" fill="url(#linear-gradient-9)"/>
    </g>
  </g>
  <g id="Grupo_93" data-name="Grupo 93" transform="translate(-449 -132.506)">
    <g id="Grupo_92" data-name="Grupo 92" clip-path="url(#clip-path-10)">
      <rect id="Rectángulo_32" data-name="Rectángulo 32" width="0.002" height="0.002" transform="matrix(0.416, -0.909, 0.909, 0.416, 489.42, 164.096)" fill="url(#linear-gradient-10)"/>
    </g>
  </g>
</svg>
