<svg id="i_bootstrap" xmlns="http://www.w3.org/2000/svg" width="71.561" height="71.561" viewBox="0 0 71.561 71.561">
  <path id="Trazado_60" data-name="Trazado 60" d="M628.3,100.862H566.748a5.006,5.006,0,0,1-5.006-5.006V34.307a5.006,5.006,0,0,1,5.006-5.006H628.3a5.006,5.006,0,0,1,5.006,5.006V95.856a5.006,5.006,0,0,1-5.006,5.006" transform="translate(-561.742 -29.301)" fill="#fff"/>
  <path id="Trazado_62" data-name="Trazado 62" d="M611.283,85.722H583.762a6.9,6.9,0,0,1-6.881-6.88V51.32a6.9,6.9,0,0,1,6.881-6.88h27.521a6.9,6.9,0,0,1,6.88,6.88V78.842a6.9,6.9,0,0,1-6.88,6.88" transform="translate(-562 -29.301)" fill="#563d7c"/>
  <path id="Trazado_63" data-name="Trazado 63" d="M588.078,53.412h11.729a8.389,8.389,0,0,1,5.206,1.484,5.275,5.275,0,0,1,1.96,4.486,5.354,5.354,0,0,1-.892,3.116,5.741,5.741,0,0,1-2.556,2.01v.068a5.292,5.292,0,0,1,3.381,2.1,6.987,6.987,0,0,1,1.149,4.1,6.855,6.855,0,0,1-.507,2.645,5.34,5.34,0,0,1-1.589,2.124,8.1,8.1,0,0,1-2.772,1.417,13.61,13.61,0,0,1-4.022.526H588.078Zm4.25,10.118h6.908a3.75,3.75,0,0,0,2.54-.867,3.1,3.1,0,0,0,1.016-2.492,3.153,3.153,0,0,0-.914-2.574,4.109,4.109,0,0,0-2.642-.745h-6.908Zm0,10.523h7.48a4.177,4.177,0,0,0,2.993-1,3.692,3.692,0,0,0,1.069-2.83,3.524,3.524,0,0,0-1.069-2.762,4.282,4.282,0,0,0-2.993-.961h-7.48Z" transform="translate(-562 -29.301)" fill="#fff"/>
</svg>
