<svg id="i_css" xmlns="http://www.w3.org/2000/svg" width="71.561" height="71.561" viewBox="0 0 71.561 71.561">
  <path id="Trazado_48" data-name="Trazado 48" d="M291.252,204.067H229.7a5.006,5.006,0,0,1-5.006-5.006V137.512a5.006,5.006,0,0,1,5.006-5.006h61.549a5.006,5.006,0,0,1,5.006,5.006v61.549a5.006,5.006,0,0,1-5.006,5.006" transform="translate(-224.697 -132.506)" fill="#fff"/>
  <path id="Trazado_54" data-name="Trazado 54" d="M276.2,150.46l-2.864,32.084-12.874,3.569-12.838-3.564-2.861-32.089Z" transform="translate(-225 -132.506)" fill="#264de4"/>
  <path id="Trazado_55" data-name="Trazado 55" d="M270.88,180.5l2.447-27.417H260.478v30.3Z" transform="translate(-225 -132.506)" fill="#2965f1"/>
  <path id="Trazado_56" data-name="Trazado 56" d="M251.318,164.985l.353,3.936h8.807v-3.936Z" transform="translate(-225 -132.506)" fill="#ebebeb"/>
  <path id="Trazado_57" data-name="Trazado 57" d="M260.477,157.019h-9.868l.357,3.936h9.511Z" transform="translate(-225 -132.506)" fill="#ebebeb"/>
  <path id="Trazado_58" data-name="Trazado 58" d="M260.477,179.3v-4.1l-.017.005-4.383-1.184-.28-3.138h-3.951l.551,6.179,8.062,2.238Z" transform="translate(-225 -132.506)" fill="#ebebeb"/>
  <path id="Trazado_59" data-name="Trazado 59" d="M265.31,168.921l-.457,5.1-4.389,1.185V179.3l8.068-2.236.059-.665.925-10.361.1-1.057.71-7.965h-9.858v3.935h5.545l-.358,4.03h-5.187v3.936Z" transform="translate(-225 -132.506)" fill="#fff"/>
</svg>
