<svg id="i_git" xmlns="http://www.w3.org/2000/svg" width="71.561" height="71.561" viewBox="0 0 71.561 71.561">
  <path id="Trazado_105" data-name="Trazado 105" d="M403.6,204.067H342.051a5.006,5.006,0,0,1-5.006-5.006V137.512a5.006,5.006,0,0,1,5.006-5.006H403.6a5.006,5.006,0,0,1,5.006,5.006v61.549a5.006,5.006,0,0,1-5.006,5.006" transform="translate(-337.045 -132.506)" fill="#fff"/>
  <path id="Trazado_110" data-name="Trazado 110" d="M394.495,166.28,374.83,146.618a2.9,2.9,0,0,0-4.1,0l-4.083,4.083,5.18,5.181a3.443,3.443,0,0,1,4.361,4.39l4.992,4.992a3.446,3.446,0,1,1-2.067,1.945l-4.655-4.655V174.8a3.5,3.5,0,0,1,.913.652,3.449,3.449,0,1,1-3.75-.753V162.34a3.378,3.378,0,0,1-1.13-.752,3.454,3.454,0,0,1-.744-3.774l-5.1-5.107-13.483,13.482a2.9,2.9,0,0,0,0,4.1l19.664,19.662a2.9,2.9,0,0,0,4.1,0l19.573-19.569a2.9,2.9,0,0,0,0-4.1" transform="translate(-337 -132.506)" fill="#f05133"/>
</svg>
