<svg id="i_html5" xmlns="http://www.w3.org/2000/svg" width="71.561" height="71.561" viewBox="0 0 71.561 71.561">
  <path id="Trazado_47" data-name="Trazado 47" d="M291.252,100.862H229.7a5.006,5.006,0,0,1-5.006-5.006V34.307A5.006,5.006,0,0,1,229.7,29.3h61.549a5.006,5.006,0,0,1,5.006,5.006V95.856a5.006,5.006,0,0,1-5.006,5.006" transform="translate(-224.697 -29.301)" fill="#fff"/>
  <path id="Trazado_49" data-name="Trazado 49" d="M247.628,79.342l-2.861-32.087h31.419l-2.864,32.09-12.853,3.563Z" transform="translate(-225 -29.301)" fill="#e34e26"/>
  <path id="Trazado_50" data-name="Trazado 50" d="M260.477,49.878v30.3L270.87,77.3l2.449-27.423Z" transform="translate(-225 -29.301)" fill="#ef662a"/>
  <path id="Trazado_51" data-name="Trazado 51" d="M250.621,53.814l1.061,11.9h13.64l-.458,5.1-4.392,1.188-4.383-1.186-.293-3.277h-3.95l.564,6.318,8.062,2.239,8.071-2.239,1.082-12.082H255.281l-.36-4.03h15.061l.352-3.936Z" transform="translate(-225 -29.301)" fill="#fff"/>
  <path id="Trazado_52" data-name="Trazado 52" d="M260.477,53.814H250.62l1.061,11.9h8.8V61.78h-5.2l-.361-4.03h5.557Z" transform="translate(-225 -29.301)" fill="#ebebeb"/>
</svg>
