<svg id="i_javascript" xmlns="http://www.w3.org/2000/svg" width="71.561" height="71.561" viewBox="0 0 71.561 71.561">
  <path id="Trazado_41" data-name="Trazado 41" d="M66.555,100.862H5.006A5.006,5.006,0,0,1,0,95.856V34.307A5.006,5.006,0,0,1,5.006,29.3H66.555a5.006,5.006,0,0,1,5.006,5.006V95.856a5.006,5.006,0,0,1-5.006,5.006" transform="translate(0 -29.301)" fill="#fff"/>
  <path id="Trazado_43" data-name="Trazado 43" d="M18.447,45.465c3.875-.163,7.758.046,11.637-.02,4.28-.136,8.555-.023,12.838-.007,3.4.007,6.795-.016,10.192.011-1.069,11.789-2.146,23.578-3.137,35.374-4.552,1.294-9.107,2.569-13.658,3.856a2.666,2.666,0,0,1-1.742-.136q-6.489-1.866-12.985-3.673Q19.9,63.181,18.447,45.465m17.405,3.074c-.159,5.815-.023,11.63-.07,17.444.043,5.317-.077,10.638.063,15.956,3.824-.9,7.6-2.01,11.372-3.1.949-10.094,1.874-20.188,2.667-30.294-4.676-.046-9.356.008-14.032,0M30.986,71.246c-2.247-.614-4.466-1.322-6.744-1.807a24.788,24.788,0,0,0,.113,4.05c3.335.812,6.6,1.881,9.939,2.678.023-7.7-.012-15.4.015-23.1-1.088-.028-2.176-.043-3.265-.067C30.92,59.076,31.037,65.163,30.986,71.246Z" transform="translate(0 -29.301)" fill="#d6ba32"/>
  <path id="Trazado_44" data-name="Trazado 44" d="M35.852,48.539c4.676.011,9.356-.043,14.032,0-.793,10.1-1.718,20.2-2.667,30.293-3.774,1.092-7.548,2.2-11.373,3.1-.14-5.317-.019-10.638-.062-15.955.047-5.815-.089-11.63.07-17.444m1.31,4.52q.024,7.509,0,15.023c2.285-.37,4.563-.793,6.841-1.209-.035,1.166-.082,2.332-.132,3.5-2.22.591-4.435,1.2-6.666,1.749-.035,1.345-.039,2.69-.027,4.038,2.81-.629,5.577-1.422,8.368-2.126.35-.163,1.022-.144.991-.692.338-3.6.548-7.214.874-10.821-2.312.191-4.6.58-6.914.739-.02-2.044-.023-4.089.008-6.133q3.649,0,7.295,0c.156-1.364.292-2.732.4-4.1C44.52,53.043,40.839,52.993,37.162,53.059Z" transform="translate(0 -29.301)" fill="#ffda3e"/>
  <path id="Trazado_45" data-name="Trazado 45" d="M30.986,71.246c.051-6.083-.066-12.17.058-18.249,1.089.024,2.177.039,3.265.067-.027,7.7.008,15.4-.015,23.1-3.339-.8-6.6-1.866-9.939-2.678a24.788,24.788,0,0,1-.113-4.05c2.278.485,4.5,1.193,6.744,1.807" transform="translate(0 -29.301)" fill="#ebebeb"/>
</svg>
