<svg id="i_laravel" xmlns="http://www.w3.org/2000/svg" width="71.561" height="71.561" viewBox="0 0 71.561 71.561">
  <path id="Trazado_42" data-name="Trazado 42" d="M66.555,204.067H5.006A5.006,5.006,0,0,1,0,199.061V137.512a5.006,5.006,0,0,1,5.006-5.006H66.555a5.006,5.006,0,0,1,5.006,5.006v61.549a5.006,5.006,0,0,1-5.006,5.006" transform="translate(0 -132.506)" fill="#fff"/>
  <path id="Trazado_46" data-name="Trazado 46" d="M54.052,157.975a.572.572,0,0,1,.021.154v8.084a.589.589,0,0,1-.3.511l-6.785,3.907v7.743a.59.59,0,0,1-.3.511l-14.163,8.153a.574.574,0,0,1-.1.043.334.334,0,0,1-.04.016.594.594,0,0,1-.3,0,.385.385,0,0,1-.047-.019.62.62,0,0,1-.1-.04l-14.16-8.153a.592.592,0,0,1-.3-.511V154.122a.616.616,0,0,1,.021-.155c0-.017.015-.032.021-.049a.609.609,0,0,1,.037-.092c.011-.019.028-.034.041-.052a.593.593,0,0,1,.052-.069,4.8,4.8,0,0,0,.123-.1h0l7.08-4.076a.592.592,0,0,1,.59,0l7.08,4.076h0c.024.015.043.034.065.05a.627.627,0,0,1,.057.045.505.505,0,0,1,.053.069.481.481,0,0,1,.04.052.558.558,0,0,1,.038.092.44.44,0,0,1,.021.05.572.572,0,0,1,.021.154v15.147l5.9-3.4v-7.744a.606.606,0,0,1,.02-.153c.006-.018.015-.033.021-.05a.669.669,0,0,1,.038-.091c.011-.02.028-.035.04-.053a.724.724,0,0,1,.053-.068.491.491,0,0,1,.058-.044.52.52,0,0,1,.065-.051l7.082-4.077a.59.59,0,0,1,.589,0l7.081,4.077a.672.672,0,0,1,.066.05c.018.015.04.028.057.044s.035.046.053.069a.4.4,0,0,1,.039.053.567.567,0,0,1,.039.091.434.434,0,0,1,.02.05m-1.159,7.9V159.15l-2.478,1.426-3.423,1.971v6.722Zm-7.081,12.161v-6.727l-3.367,1.923-9.615,5.487v6.791ZM18.669,155.142v22.891l12.981,7.473v-6.789l-6.782-3.838h0l0,0a.583.583,0,0,1-.063-.048.636.636,0,0,1-.056-.043l0,0a.686.686,0,0,1-.048-.062.6.6,0,0,1-.045-.058v0a.349.349,0,0,1-.031-.074.385.385,0,0,1-.028-.066h0a24.263,24.263,0,0,1-.021-.152V158.54l-3.422-1.972-2.478-1.425Zm6.491-4.416-5.9,3.4,5.9,3.4,5.9-3.4-5.9-3.4Zm3.068,21.193,3.422-1.97V155.142l-2.478,1.427-3.423,1.971v14.806ZM46.4,154.733l-5.9,3.4,5.9,3.4,5.9-3.4Zm-.59,7.814-3.423-1.971-2.478-1.426v6.722l3.423,1.97,2.478,1.427ZM32.239,177.7l8.652-4.939,4.325-2.469L39.322,166.9,32.535,170.8l-6.185,3.561Z" transform="translate(0 -132.506)" fill="#ff2d20" fill-rule="evenodd"/>
</svg>
