<svg id="i_mercadopago" xmlns="http://www.w3.org/2000/svg" width="71.561" height="71.561" viewBox="0 0 71.561 71.561">
  <path id="Trazado_61" data-name="Trazado 61" d="M628.3,204.067H566.748a5.006,5.006,0,0,1-5.006-5.006V137.512a5.006,5.006,0,0,1,5.006-5.006H628.3a5.006,5.006,0,0,1,5.006,5.006v61.549a5.006,5.006,0,0,1-5.006,5.006" transform="translate(-561.742 -132.506)" fill="#fff"/>
  <path id="Trazado_64" data-name="Trazado 64" d="M618.289,167.5c0-7.483-9.3-13.582-20.767-13.582s-20.764,6.1-20.764,13.582c0,.193,0,.727,0,.795,0,7.938,8.126,14.367,20.766,14.367,12.716,0,20.768-6.427,20.768-14.365Z" transform="translate(-561.742 -132.506)" fill="#000f9f"/>
  <path id="Trazado_65" data-name="Trazado 65" d="M617.493,167.49c0,7.054-8.939,12.773-19.967,12.773s-19.966-5.719-19.966-12.773,8.939-12.774,19.966-12.774,19.967,5.719,19.967,12.774" transform="translate(-561.742 -132.506)" fill="#009ee2"/>
  <path id="Trazado_66" data-name="Trazado 66" d="M590.9,163.46c-.011.02-.21.226-.081.392a2.5,2.5,0,0,0,2.273.413,6.612,6.612,0,0,0,2.065-1.307,8.244,8.244,0,0,1,2.357-1.5,2.7,2.7,0,0,1,1.718-.045,5.3,5.3,0,0,1,1.567.914c1.366,1.027,6.86,5.822,7.809,6.651a47.369,47.369,0,0,1,8.779-2.825,10.88,10.88,0,0,0-4.169-6.557c-3.165,1.329-7.033,2.023-10.815.175a10.49,10.49,0,0,0-4.085-.929c-3,.07-4.3,1.369-5.676,2.744Z" transform="translate(-561.742 -132.506)" fill="#fff"/>
  <path id="Trazado_67" data-name="Trazado 67" d="M608.382,169.5c-.064-.057-6.459-5.653-7.908-6.741a3.544,3.544,0,0,0-1.794-.852,2.439,2.439,0,0,0-.854.082,7.71,7.71,0,0,0-2.337,1.393,6.692,6.692,0,0,1-2.283,1.412,3.689,3.689,0,0,1-2.516-.379,1.1,1.1,0,0,1-.417-.458.772.772,0,0,1,.214-.835l1.765-1.908c.2-.205.411-.411.623-.612a11.459,11.459,0,0,0-1.608.363,6.989,6.989,0,0,1-1.877.35,17.55,17.55,0,0,1-1.916-.3,28.566,28.566,0,0,1-5.092-1.839,11.283,11.283,0,0,0-4.671,6.775c.36.1.941.268,1.185.322,5.678,1.263,7.446,2.563,7.767,2.835a1.878,1.878,0,0,1,2.945.173,2.151,2.151,0,0,1,1.354-.477,2.526,2.526,0,0,1,.812.144,1.861,1.861,0,0,1,1.142,1.031,1.906,1.906,0,0,1,.79-.168,2.394,2.394,0,0,1,.945.208,2.019,2.019,0,0,1,1.114,2.253,1.889,1.889,0,0,1,.226-.011,2.247,2.247,0,0,1,1.981,3.313,3.572,3.572,0,0,0,1.954.523,1.248,1.248,0,0,0,.916-.4c.056-.08.115-.173.06-.24l-1.6-1.78s-.264-.249-.177-.346.254.043.369.14c.815.681,1.811,1.708,1.811,1.708.017.012.083.143.451.208a1.668,1.668,0,0,0,1.266-.295,1.872,1.872,0,0,0,.277-.285c-.006,0-.011.011-.017.015a.852.852,0,0,0-.046-1.055l-1.87-2.1s-.267-.247-.177-.347.254.044.371.141c.592.5,1.429,1.334,2.231,2.12a1.519,1.519,0,0,0,1.794-.063,1.284,1.284,0,0,0,.664-1.172,1.341,1.341,0,0,0-.4-.78l-2.555-2.568s-.269-.23-.174-.347c.078-.1.253.044.368.139.814.681,3.017,2.7,3.017,2.7a1.548,1.548,0,0,0,1.733-.035,1.153,1.153,0,0,0,.57-.916,1.353,1.353,0,0,0-.429-1.041" transform="translate(-561.742 -132.506)" fill="#fff"/>
  <path id="Trazado_68" data-name="Trazado 68" d="M595.991,172.753a5.645,5.645,0,0,0-.886.2c-.031-.02.024-.18.061-.271s.56-1.661-.712-2.206a1.5,1.5,0,0,0-1.772.264c-.054.056-.078.052-.084-.019a1.4,1.4,0,0,0-.986-1.3,1.924,1.924,0,0,0-2.168.773,1.387,1.387,0,1,0-.412,1.181c.008.007.011.02.007.047a1.831,1.831,0,0,0,1.145,2.106,1.362,1.362,0,0,0,1.343-.207c.111-.078.129-.045.113.058a1.309,1.309,0,0,0,.979,1.4,1.243,1.243,0,0,0,1.456-.27c.124-.114.158-.1.165.08a1.752,1.752,0,1,0,1.751-1.832" transform="translate(-561.742 -132.506)" fill="#fff"/>
  <path id="Trazado_69" data-name="Trazado 69" d="M608.63,168.826c-1.97-1.719-6.523-5.677-7.756-6.6a5.426,5.426,0,0,0-1.607-.936,2.657,2.657,0,0,0-.789-.122,3.317,3.317,0,0,0-1,.168,8.2,8.2,0,0,0-2.359,1.494l-.039.031a6.532,6.532,0,0,1-2.014,1.282,3.406,3.406,0,0,1-.746.083,1.913,1.913,0,0,1-1.4-.451c-.035-.044-.013-.116.069-.22l.01-.014,1.733-1.867c1.357-1.358,2.64-2.639,5.591-2.707l.147,0a10.431,10.431,0,0,1,3.879.919,12.026,12.026,0,0,0,5.287,1.268,13.791,13.791,0,0,0,5.805-1.391c-.226-.19-.46-.374-.7-.556a12.76,12.76,0,0,1-5.1,1.158,11.249,11.249,0,0,1-4.947-1.19,11.133,11.133,0,0,0-4.223-1l-.167,0a7.334,7.334,0,0,0-4.814,1.709,9.552,9.552,0,0,0-2.4.439,6.538,6.538,0,0,1-1.692.324c-.217,0-.608-.02-.643-.021a32.992,32.992,0,0,1-6.087-1.687c-.248.176-.486.357-.718.542a30.075,30.075,0,0,0,6.6,1.907c.272.018.561.048.849.049a7.225,7.225,0,0,0,1.911-.355c.367-.1.773-.215,1.2-.3q-.171.168-.342.339l-1.761,1.905a.886.886,0,0,0-.241.973,1.24,1.24,0,0,0,.463.514,3.68,3.68,0,0,0,1.869.474,3.408,3.408,0,0,0,.746-.078,6.759,6.759,0,0,0,2.332-1.434,7.751,7.751,0,0,1,2.292-1.373,2.62,2.62,0,0,1,.639-.087,1.227,1.227,0,0,1,.165.009,3.455,3.455,0,0,1,1.735.828c1.445,1.086,7.841,6.681,7.9,6.736a1.225,1.225,0,0,1,.384.94,1.024,1.024,0,0,1-.511.817,1.558,1.558,0,0,1-.839.261,1.389,1.389,0,0,1-.741-.214c-.024-.02-2.215-2.029-3.021-2.7a.679.679,0,0,0-.38-.2.205.205,0,0,0-.167.079c-.127.156.015.373.183.515l2.559,2.573a1.216,1.216,0,0,1,.354.693,1.169,1.169,0,0,1-.608,1.061,1.649,1.649,0,0,1-.907.3,1.324,1.324,0,0,1-.73-.221l-.367-.362c-.671-.66-1.364-1.343-1.872-1.766a.676.676,0,0,0-.381-.2.218.218,0,0,0-.161.068c-.058.065-.1.18.046.372a1.217,1.217,0,0,0,.129.144l1.868,2.1a.716.716,0,0,1,.042.9l-.066.084a1.939,1.939,0,0,1-.174.167,1.491,1.491,0,0,1-.913.29,1.408,1.408,0,0,1-.252-.022.634.634,0,0,1-.368-.155l-.022-.024c-.1-.1-1.044-1.066-1.823-1.717a.647.647,0,0,0-.363-.194.224.224,0,0,0-.169.075c-.154.169.077.422.175.514l1.593,1.757a.323.323,0,0,1-.06.107c-.057.079-.25.273-.828.345a1.654,1.654,0,0,1-.212.013,3.639,3.639,0,0,1-1.559-.463,2.376,2.376,0,0,0-2.149-3.389l-.086,0a2.108,2.108,0,0,0-1.2-2.231,2.5,2.5,0,0,0-.993-.219,2.031,2.031,0,0,0-.729.132,2,2,0,0,0-1.163-.988,2.61,2.61,0,0,0-.853-.15,2.247,2.247,0,0,0-1.328.425,2,2,0,0,0-2.983-.168c-.5-.378-2.463-1.628-7.727-2.823-.255-.058-.841-.226-1.2-.331a8.644,8.644,0,0,0-.135.864s.971.233,1.162.276c5.379,1.194,7.156,2.436,7.456,2.671a2.019,2.019,0,0,0,2.23,2.757,2.347,2.347,0,0,0,1.52,1.756,2,2,0,0,0,.718.139,1.84,1.84,0,0,0,.459-.058,2.334,2.334,0,0,0,2.042,1.334,1.765,1.765,0,0,0,.615-.11,2.372,2.372,0,0,0,3.9.753,4.494,4.494,0,0,0,2.012.6,2.522,2.522,0,0,0,.3-.02,1.841,1.841,0,0,0,1.365-.668.987.987,0,0,0,.083-.136,2.333,2.333,0,0,0,.645.1,2.173,2.173,0,0,0,1.3-.465,1.791,1.791,0,0,0,.767-1.116l0-.016a2.193,2.193,0,0,0,.435.045,2.42,2.42,0,0,0,1.336-.424,1.927,1.927,0,0,0,.959-1.717,2.177,2.177,0,0,0,.44.046,2.318,2.318,0,0,0,1.252-.385,1.827,1.827,0,0,0,.869-1.416,1.9,1.9,0,0,0-.276-1.144,51.865,51.865,0,0,1,8.3-2.6c-.023-.29-.065-.576-.116-.86a47.536,47.536,0,0,0-8.738,2.838m-12.639,7.306a1.616,1.616,0,0,1-1.624-1.552c0-.075-.01-.273-.177-.273a.311.311,0,0,0-.2.1,1.144,1.144,0,0,1-.8.361,1.387,1.387,0,0,1-.526-.115c-.927-.375-.939-1.012-.9-1.268a.228.228,0,0,0-.033-.194l-.057-.051h-.058a.283.283,0,0,0-.161.065,1.356,1.356,0,0,1-.787.28,1.219,1.219,0,0,1-.439-.086,1.7,1.7,0,0,1-1.065-1.974.166.166,0,0,0-.053-.161l-.086-.071-.081.077a1.254,1.254,0,0,1-.876.355,1.267,1.267,0,1,1,1.252-1.427l.044.34.187-.288a1.857,1.857,0,0,1,1.474-.807,1.88,1.88,0,0,1,.55.086,1.282,1.282,0,0,1,.9,1.193c.013.166.131.173.154.173a.207.207,0,0,0,.146-.076,1.279,1.279,0,0,1,.933-.394,1.786,1.786,0,0,1,.7.158c1.193.511.652,2.027.645,2.043-.1.251-.106.362-.01.426l.047.023h.035a.873.873,0,0,0,.231-.061,2.024,2.024,0,0,1,.636-.14h0a1.627,1.627,0,1,1,0,3.254" transform="translate(-561.742 -132.506)" fill="#000f9f"/>
</svg>
