<svg id="i_mysql" xmlns="http://www.w3.org/2000/svg" width="71.561" height="71.561" viewBox="0 0 71.561 71.561">
  <path id="Trazado_112" data-name="Trazado 112" d="M178.9,204.067H117.355a5.006,5.006,0,0,1-5.006-5.006V137.512a5.006,5.006,0,0,1,5.006-5.006H178.9a5.006,5.006,0,0,1,5.006,5.006v61.549a5.006,5.006,0,0,1-5.006,5.006" transform="translate(-112.349 -132.506)" fill="#fff"/>
  <path id="Trazado_121" data-name="Trazado 121" d="M164.777,178.939a12.63,12.63,0,0,0-5.277.736c-.4.169-1.051.174-1.117.676.223.231.257.575.434.859a6.82,6.82,0,0,0,1.428,1.657c.561.418,1.138.865,1.739,1.227,1.068.644,2.261,1.012,3.29,1.657.606.38,1.208.859,1.8,1.288.292.213.489.543.869.675v-.061c-.2-.251-.251-.6-.435-.859-.268-.266-.538-.532-.807-.8a13.192,13.192,0,0,0-2.855-2.7c-.849-.6-2.75-1.416-3.1-2.393l-.062-.062a13.617,13.617,0,0,0,1.862-.429c.934-.247,1.768-.183,2.732-.429l1.3-.369v-.247c-.482-.5-.826-1.15-1.352-1.6a39.341,39.341,0,0,0-4.423-3.319c-.858-.541-1.918-.893-2.827-1.351-.305-.155-.842-.235-1.044-.492a12.958,12.958,0,0,1-1.106-2.089c-.771-1.485-1.529-3.107-2.212-4.67a25.2,25.2,0,0,0-1.352-3.072A27.134,27.134,0,0,0,141.816,152.7a12.554,12.554,0,0,0-3.441-1.106l-2.027-.123a10.75,10.75,0,0,1-1.229-.921c-1.541-.974-5.494-3.092-6.636-.307-.72,1.757,1.077,3.472,1.72,4.362a13.1,13.1,0,0,1,1.352,2.028c.212.461.249.924.43,1.413a32.758,32.758,0,0,0,1.413,3.625,12.825,12.825,0,0,0,.984,1.659c.226.309.614.445.675.922a7.516,7.516,0,0,0-.614,2.027,11.77,11.77,0,0,0,.8,9.033c.428.688,1.438,2.163,2.826,1.6,1.214-.494.943-2.027,1.29-3.379.079-.307.031-.532.185-.738v.08q.551,1.1,1.1,2.207a15.028,15.028,0,0,0,3.491,3.617c.637.48,1.138,1.312,1.961,1.593v-.061h-.254c-.161-.249-.414-.352-.62-.553a14.087,14.087,0,0,1-1.428-1.6,37.342,37.342,0,0,1-3.042-4.909c-.435-.826-.813-1.737-1.18-2.578-.141-.324-.139-.814-.434-.982a12.281,12.281,0,0,0-1.3,1.841,15.594,15.594,0,0,0-.744,4.051c-.109.038-.061.012-.125.061-.864-.206-1.168-1.086-1.49-1.841a11.482,11.482,0,0,1-.248-7.18c.185-.568,1.021-2.359.683-2.884-.162-.524-.695-.827-.993-1.227a9.6,9.6,0,0,1-.994-1.719c-.665-1.488-.976-3.159-1.676-4.663a13.546,13.546,0,0,0-1.366-2.087,12.167,12.167,0,0,1-1.489-2.086c-.142-.3-.335-.792-.125-1.1a.49.49,0,0,1,.373-.368c.36-.275,1.363.091,1.738.245a15.24,15.24,0,0,1,2.67,1.35c.4.266.814.779,1.3.921h.559c.874.2,1.853.062,2.669.307a16.22,16.22,0,0,1,3.911,1.841A24.031,24.031,0,0,1,151,164.273c.322.61.461,1.193.745,1.841.572,1.306,1.293,2.65,1.862,3.927a18.283,18.283,0,0,0,1.924,3.621c.423.557,2.053.856,2.794,1.166a16.593,16.593,0,0,1,1.862.736c.94.56,1.85,1.227,2.732,1.841.44.307,1.8.98,1.862,1.534" transform="translate(-112 -132.506)" fill="#00618a"/>
  <path id="Trazado_122" data-name="Trazado 122" d="M137.369,155.466a4.471,4.471,0,0,0-1.1.123v.062h.062a8.458,8.458,0,0,0,.858,1.1q.306.644.613,1.287l.061-.062a1.491,1.491,0,0,0,.552-1.347c-.152-.16-.175-.361-.307-.552-.175-.255-.514-.4-.735-.614" transform="translate(-112 -132.506)" fill="#00618a" fill-rule="evenodd"/>
</svg>
