<svg id="i_php" xmlns="http://www.w3.org/2000/svg" xmlns:xlink="http://www.w3.org/1999/xlink" width="71.561" height="71.561" viewBox="0 0 71.561 71.561">
  <defs>
    <clipPath id="clip-path">
      <path id="Trazado_113" data-name="Trazado 113" d="M123.674,65.087c0,7.1,10.934,12.849,24.425,12.849s24.425-5.753,24.425-12.849S161.588,52.238,148.1,52.238s-24.425,5.753-24.425,12.849" fill="none"/>
    </clipPath>
    <radialGradient id="radial-gradient" cx="0.3" cy="0.176" r="1.248" gradientTransform="translate(-1.2) scale(0.526 1)" gradientUnits="objectBoundingBox">
      <stop offset="0" stop-color="#aeb2d5"/>
      <stop offset="0.3" stop-color="#aeb2d5"/>
      <stop offset="0.75" stop-color="#484c89"/>
      <stop offset="1" stop-color="#484c89"/>
    </radialGradient>
    <clipPath id="clip-path-2">
      <rect id="Rect치ngulo_35" data-name="Rect치ngulo 35" width="50.886" height="28.624" transform="translate(122.686 50.769)" fill="none"/>
    </clipPath>
  </defs>
  <path id="Trazado_111" data-name="Trazado 111" d="M178.9,100.862H117.355a5.006,5.006,0,0,1-5.006-5.006V34.307a5.006,5.006,0,0,1,5.006-5.006H178.9a5.006,5.006,0,0,1,5.006,5.006V95.856a5.006,5.006,0,0,1-5.006,5.006" transform="translate(-112.349 -29.301)" fill="#fff"/>
  <g id="Grupo_97" data-name="Grupo 97" transform="translate(-112 -29.301)">
    <g id="Grupo_96" data-name="Grupo 96" clip-path="url(#clip-path)">
      <rect id="Rect치ngulo_34" data-name="Rect치ngulo 34" width="48.85" height="25.698" transform="translate(123.674 52.238)" fill="url(#radial-gradient)"/>
    </g>
  </g>
  <g id="Grupo_99" data-name="Grupo 99" transform="translate(-112 -29.301)">
    <g id="Grupo_98" data-name="Grupo 98" clip-path="url(#clip-path-2)">
      <path id="Trazado_114" data-name="Trazado 114" d="M148.1,76.982c12.963,0,23.471-5.325,23.471-11.9S161.061,53.193,148.1,53.193s-23.471,5.325-23.471,11.894,10.508,11.9,23.471,11.9" fill="#777bb3"/>
      <path id="Trazado_115" data-name="Trazado 115" d="M136.94,66.6a3.911,3.911,0,0,0,2.374-.586,3.178,3.178,0,0,0,1.026-1.982,2.138,2.138,0,0,0-.191-1.8,2.677,2.677,0,0,0-1.941-.5H136.5L135.55,66.6Zm-5.557,5.937a.273.273,0,0,1-.106-.019.265.265,0,0,1-.159-.295l2.493-12.83a.264.264,0,0,1,.259-.214h5.4a4.739,4.739,0,0,1,3.743,1.366,4.267,4.267,0,0,1,.73,3.785,5.842,5.842,0,0,1-1.839,3.293,5.218,5.218,0,0,1-1.961,1.175,8.872,8.872,0,0,1-2.693.347h-2.195l-.617,3.177a.265.265,0,0,1-.26.215Z"/>
      <path id="Trazado_116" data-name="Trazado 116" d="M136.727,62.007h1.479c1.181,0,1.591.259,1.731.414a1.942,1.942,0,0,1,.126,1.563,2.907,2.907,0,0,1-.92,1.808,3.645,3.645,0,0,1-2.2.526H135.89Zm2.568-3.109h-5.421a.528.528,0,0,0-.52.428l-2.5,12.864a.53.53,0,0,0,.294.581.522.522,0,0,0,.234.05h2.8a.531.531,0,0,0,.52-.429l.576-2.964h1.97a9.152,9.152,0,0,0,2.781-.36,5.51,5.51,0,0,0,2.064-1.235,6.136,6.136,0,0,0,1.921-3.442,4.523,4.523,0,0,0-.793-4.017,4.993,4.993,0,0,0-3.949-1.459m-4,7.9h1.681a4.107,4.107,0,0,0,2.519-.637,3.386,3.386,0,0,0,1.117-2.127,2.328,2.328,0,0,0-.253-2.019,2.861,2.861,0,0,0-2.124-.588h-1.915l-1.044,5.371m4.022-7.4a4.478,4.478,0,0,1,3.55,1.278,4.006,4.006,0,0,1,.671,3.566,5.586,5.586,0,0,1-1.761,3.155,4.96,4.96,0,0,1-1.867,1.12,8.6,8.6,0,0,1-2.617.334h-2.4l-.659,3.392h-2.807l2.5-12.863h5.421" fill="#fff"/>
      <path id="Trazado_117" data-name="Trazado 117" d="M150.182,69.145a.281.281,0,0,1-.107-.019.265.265,0,0,1-.158-.295l1.1-5.677c.1-.54.079-.927-.073-1.091-.093-.1-.372-.268-1.2-.268h-2l-1.387,7.136a.265.265,0,0,1-.26.214h-2.787a.273.273,0,0,1-.106-.019.267.267,0,0,1-.16-.3l2.506-12.9a.266.266,0,0,1,.261-.215H148.6a.261.261,0,0,1,.107.02.27.27,0,0,1,.159.3l-.611,3.144h2.165a5,5,0,0,1,3.4.884,2.945,2.945,0,0,1,.613,2.886l-1.162,5.981a.266.266,0,0,1-.26.214Z"/>
      <path id="Trazado_118" data-name="Trazado 118" d="M148.623,55.435h-2.809a.528.528,0,0,0-.52.428l-2.5,12.864a.53.53,0,0,0,.294.581.537.537,0,0,0,.234.049l2.759.071A.534.534,0,0,0,146.6,69l1.358-6.99h1.8c.832,0,1.006.178,1.013.186.051.054.117.305.008.869l-1.114,5.731a.53.53,0,0,0,.531.635h2.81a.53.53,0,0,0,.521-.43l1.166-6A3.2,3.2,0,0,0,154,59.855a5.251,5.251,0,0,0-3.593-.957h-1.832l.542-2.793a.53.53,0,0,0-.52-.631m0,.5-.665,3.423h2.475a4.835,4.835,0,0,1,3.234.818,2.707,2.707,0,0,1,.534,2.65l-1.167,6h-2.833l1.1-5.677q.189-.969-.138-1.321a1.949,1.949,0,0,0-1.392-.352h-2.216l-1.428,7.35h-2.791L145.814,56h2.809" fill="#fff"/>
      <path id="Trazado_119" data-name="Trazado 119" d="M158.832,66.6a3.911,3.911,0,0,0,2.374-.586,3.17,3.17,0,0,0,1.026-1.982,2.135,2.135,0,0,0-.191-1.8,2.677,2.677,0,0,0-1.941-.5h-1.71l-.947,4.876Zm-5.557,5.937a.273.273,0,0,1-.106-.019.266.266,0,0,1-.159-.295l2.493-12.83a.266.266,0,0,1,.26-.214h5.4a4.739,4.739,0,0,1,3.743,1.366,4.267,4.267,0,0,1,.731,3.785,5.857,5.857,0,0,1-1.839,3.293,5.234,5.234,0,0,1-1.961,1.175,8.879,8.879,0,0,1-2.694.347H156.95l-.618,3.179a.262.262,0,0,1-.258.213Z"/>
      <path id="Trazado_120" data-name="Trazado 120" d="M158.62,62.007H160.1c1.181,0,1.591.259,1.731.414a1.938,1.938,0,0,1,.126,1.563,2.907,2.907,0,0,1-.92,1.808,3.645,3.645,0,0,1-2.195.526h-1.058Zm2.514-3.109h-5.367a.528.528,0,0,0-.52.428l-2.5,12.864a.53.53,0,0,0,.294.581.522.522,0,0,0,.234.05h2.8a.53.53,0,0,0,.52-.429l.576-2.964h1.97a9.152,9.152,0,0,0,2.781-.36,5.5,5.5,0,0,0,2.064-1.236,6.129,6.129,0,0,0,1.921-3.441,4.523,4.523,0,0,0-.793-4.017,4.993,4.993,0,0,0-3.949-1.459m-4.057,7.9h1.735a4.107,4.107,0,0,0,2.519-.637,3.381,3.381,0,0,0,1.117-2.127,2.328,2.328,0,0,0-.253-2.019,2.861,2.861,0,0,0-2.124-.588h-1.915l-1.044,5.371m4.022-7.4a4.478,4.478,0,0,1,3.55,1.278,4.006,4.006,0,0,1,.671,3.566,5.585,5.585,0,0,1-1.761,3.155,4.96,4.96,0,0,1-1.867,1.12,8.6,8.6,0,0,1-2.617.334h-2.4l-.659,3.392h-2.807l2.5-12.863h5.367" fill="#fff"/>
    </g>
  </g>
</svg>
