<svg id="icon_wa" xmlns="http://www.w3.org/2000/svg" width="40" height="40" viewBox="0 0 40 40">
  <path id="Trazado_213" data-name="Trazado 213" d="M20,40A20,20,0,1,1,40,20,20.02,20.02,0,0,1,20,40ZM20,1.52A18.48,18.48,0,1,0,38.48,20,18.5,18.5,0,0,0,20,1.52Z" fill="#f31159"/>
  <g id="Grupo_215" data-name="Grupo 215">
    <path id="Trazado_214" data-name="Trazado 214" d="M30.55,19.47a10.365,10.365,0,0,0-20.71-.19v.45a10.187,10.187,0,0,0,1.48,5.31L9.45,30.56l5.74-1.82a10.378,10.378,0,0,0,15.37-9v-.26ZM20.19,28.38a8.627,8.627,0,0,1-4.79-1.43l-3.35,1.07,1.09-3.21a8.594,8.594,0,0,1-1.66-5.07,7.872,7.872,0,0,1,.04-.84,8.714,8.714,0,0,1,17.35.16c.02.22.03.45.03.67a8.683,8.683,0,0,1-8.71,8.64Z" fill="#f31159" fill-rule="evenodd"/>
    <path id="Trazado_215" data-name="Trazado 215" d="M24.94,21.8c-.26-.13-1.5-.74-1.74-.82s-.4-.13-.57.13-.66.82-.81.98-.3.19-.55.06a7.05,7.05,0,0,1-2.04-1.25,7.364,7.364,0,0,1-1.41-1.74c-.15-.25-.01-.39.11-.51s.25-.3.38-.44l.09-.12a2.723,2.723,0,0,0,.16-.3.452.452,0,0,0-.02-.44c-.06-.13-.57-1.37-.79-1.87s-.42-.42-.57-.42-.32-.02-.49-.02a.915.915,0,0,0-.68.32,2.824,2.824,0,0,0-.89,2.11,3.144,3.144,0,0,0,.13.86,5.758,5.758,0,0,0,.91,1.75,10.56,10.56,0,0,0,4.34,3.81c2.59,1,2.59.67,3.05.63a2.536,2.536,0,0,0,1.71-1.2,2.153,2.153,0,0,0,.15-1.2c-.06-.1-.23-.16-.49-.29Z" fill="#f31159" fill-rule="evenodd"/>
  </g>
</svg>
