<svg id="icon_ig" xmlns="http://www.w3.org/2000/svg" width="40" height="40" viewBox="0 0 40 40">
  <path id="Trazado_206" data-name="Trazado 206" d="M20,40A20,20,0,1,1,40,20,20.02,20.02,0,0,1,20,40ZM20,1.52A18.48,18.48,0,1,0,38.48,20,18.5,18.5,0,0,0,20,1.52Z" fill="#f31159"/>
  <g id="Grupo_212" data-name="Grupo 212">
    <path id="Trazado_207" data-name="Trazado 207" d="M20,11.35c2.82,0,3.15.01,4.26.06a6.054,6.054,0,0,1,1.96.36,3.516,3.516,0,0,1,2,2,5.786,5.786,0,0,1,.36,1.96c.05,1.11.06,1.45.06,4.26s-.01,3.15-.06,4.26a6.054,6.054,0,0,1-.36,1.96,3.516,3.516,0,0,1-2,2,5.786,5.786,0,0,1-1.96.36c-1.11.05-1.45.06-4.26.06s-3.15-.01-4.26-.06a6.054,6.054,0,0,1-1.96-.36,3.516,3.516,0,0,1-2-2,5.786,5.786,0,0,1-.36-1.96c-.05-1.11-.06-1.45-.06-4.26s.01-3.15.06-4.26a6.054,6.054,0,0,1,.36-1.96,3.516,3.516,0,0,1,2-2,5.786,5.786,0,0,1,1.96-.36c1.11-.05,1.45-.06,4.26-.06m0-1.9c-2.87,0-3.22.01-4.35.06a7.738,7.738,0,0,0-2.56.49A5.423,5.423,0,0,0,10,13.09a7.738,7.738,0,0,0-.49,2.56c-.05,1.13-.06,1.48-.06,4.35s.01,3.22.06,4.35A7.738,7.738,0,0,0,10,26.91a5.206,5.206,0,0,0,1.22,1.87A5.122,5.122,0,0,0,13.09,30a7.738,7.738,0,0,0,2.56.49c1.13.05,1.48.06,4.35.06s3.22-.01,4.35-.06A7.737,7.737,0,0,0,26.91,30,5.423,5.423,0,0,0,30,26.91a7.738,7.738,0,0,0,.49-2.56c.05-1.13.06-1.48.06-4.35s-.01-3.22-.06-4.35A7.737,7.737,0,0,0,30,13.09a5.206,5.206,0,0,0-1.22-1.87A5.122,5.122,0,0,0,26.91,10a7.738,7.738,0,0,0-2.56-.49c-1.13-.05-1.48-.06-4.35-.06" fill="#f31159"/>
    <path id="Trazado_208" data-name="Trazado 208" d="M20,14.58A5.42,5.42,0,1,0,25.42,20,5.424,5.424,0,0,0,20,14.58m0,8.93a3.52,3.52,0,1,1,3.52-3.52A3.519,3.519,0,0,1,20,23.51" fill="#f31159"/>
    <path id="Trazado_209" data-name="Trazado 209" d="M26.9,14.37a1.27,1.27,0,1,1-1.27-1.27,1.272,1.272,0,0,1,1.27,1.27" fill="#f31159"/>
  </g>
</svg>
