<svg id="icon_fb" xmlns="http://www.w3.org/2000/svg" width="40" height="40" viewBox="0 0 40 40">
  <path id="Trazado_204" data-name="Trazado 204" d="M20,40A20,20,0,1,1,40,20,20.02,20.02,0,0,1,20,40ZM20,1.52a18.48,18.48,0,1,0,0,36.96h0A18.48,18.48,0,0,0,20,1.52Z" fill="#f31159"/>
  <path id="Trazado_205" data-name="Trazado 205" d="M17.07,31.63h4.68V19.9h3.27l.35-3.93H21.75V13.73c0-.93.19-1.29,1.08-1.29h2.53V8.36H22.12c-3.49,0-5.06,1.54-5.06,4.47v3.13H14.62v3.98h2.44V31.62Z" fill="#f31159"/>
</svg>
