<svg id="icon_in" xmlns="http://www.w3.org/2000/svg" width="40" height="40" viewBox="0 0 40 40">
  <path id="Trazado_210" data-name="Trazado 210" d="M20,40A20,20,0,1,1,40,20,20.02,20.02,0,0,1,20,40ZM20,1.52A18.48,18.48,0,1,0,38.48,20,18.5,18.5,0,0,0,20,1.52Z" fill="#f31159"/>
  <g id="Grupo_214" data-name="Grupo 214">
    <g id="Grupo_213" data-name="Grupo 213">
      <rect id="Rectángulo_78" data-name="Rectángulo 78" width="3.98" height="12.86" transform="translate(11.27 15.71)" fill="#f31159"/>
      <path id="Trazado_211" data-name="Trazado 211" d="M13.25,14.03a2.37,2.37,0,1,0-2.35-2.37A2.358,2.358,0,0,0,13.25,14.03Z" fill="#f31159"/>
    </g>
    <path id="Trazado_212" data-name="Trazado 212" d="M21.62,21.82c0-1.81.83-2.89,2.43-2.89,1.46,0,2.17,1.03,2.17,2.89v6.75h3.96V20.42c0-3.45-1.95-5.11-4.68-5.11a4.49,4.49,0,0,0-3.88,2.13V15.71H17.8V28.57h3.82V21.82Z" fill="#f31159"/>
  </g>
</svg>
