<?xml version="1.0" encoding="UTF-8"?><svg id="uuid-e56a278c-e816-4336-8e41-85e236975e5a" xmlns="http://www.w3.org/2000/svg" viewBox="0 0 122.82 32"><path d="m42.24,6c-7.76,0-14.05,4.13-14.05,9.19,0,.13,0,.49,0,.54,0,5.37,5.5,9.72,14.05,9.72s14.06-4.35,14.06-9.72v-.54c0-5.06-6.29-9.19-14.05-9.19Zm13.42,8.17c-3.05.68-5.33,1.67-5.9,1.92-1.33-1.16-4.41-3.84-5.25-4.47-.48-.36-.8-.55-1.09-.63-.13-.04-.31-.08-.53-.08-.21,0-.44.04-.68.11-.54.17-1.08.6-1.6,1.01l-.03.02c-.48.39-.98.78-1.36.87-.17.04-.34.06-.5.06-.42,0-.81-.12-.95-.3-.02-.03,0-.08.05-.15h0s1.17-1.27,1.17-1.27c.92-.92,1.79-1.79,3.78-1.83.03,0,.07,0,.1,0,1.24,0,2.49.56,2.62.62,1.17.57,2.37.86,3.58.86,1.26,0,2.56-.31,3.92-.94,1.42,1.2,2.37,2.64,2.66,4.21Zm-13.42-7.63c4.12,0,7.81,1.18,10.29,3.04-1.2.52-2.34.78-3.44.78-1.13,0-2.25-.27-3.35-.81-.06-.03-1.43-.67-2.86-.68-.04,0-.08,0-.11,0-1.68.04-2.62.64-3.26,1.16-.62.02-1.15.16-1.63.3-.42.12-.79.22-1.15.22-.15,0-.41-.01-.43-.01-.41-.01-2.46-.52-4.11-1.14,2.47-1.76,6.06-2.86,10.05-2.86Zm-10.53,3.23c1.71.7,3.79,1.24,4.45,1.28.18.01.38.03.57.03.44,0,.87-.12,1.29-.24.25-.07.52-.15.81-.2-.08.08-.15.15-.23.23l-1.19,1.29c-.09.09-.3.35-.16.66.05.13.16.25.31.35.28.19.79.32,1.26.32.18,0,.35-.02.5-.05.5-.11,1.02-.53,1.58-.97.44-.35,1.07-.8,1.55-.93.13-.04.3-.06.43-.06.04,0,.08,0,.11,0,.32.04.62.15,1.17.56.98.73,5.31,4.52,5.35,4.56,0,0,.28.24.26.64-.01.22-.13.42-.35.55-.19.12-.38.18-.57.18-.29,0-.49-.14-.5-.14-.02-.01-1.5-1.37-2.04-1.83-.09-.07-.17-.14-.26-.14-.05,0-.09.02-.11.05-.09.11.01.25.12.35l1.73,1.74s.22.2.24.47c.01.29-.12.53-.41.72-.2.13-.41.2-.61.2-.27,0-.45-.12-.49-.15l-.25-.25c-.45-.45-.92-.91-1.27-1.2-.08-.07-.17-.13-.26-.13-.04,0-.08.02-.11.05-.04.04-.07.12.03.25.04.05.09.1.09.1l1.26,1.42s.26.31.03.61l-.05.06s-.08.08-.12.11c-.22.18-.5.2-.62.2-.06,0-.12,0-.17-.02-.12-.02-.21-.06-.25-.11l-.02-.02c-.07-.07-.71-.72-1.23-1.16-.07-.06-.16-.13-.25-.13-.04,0-.08.02-.11.05-.1.11.05.28.12.35l1.08,1.19s-.02.03-.04.07c-.04.05-.17.18-.56.23-.05,0-.09,0-.14,0-.4,0-.83-.2-1.06-.31.1-.21.15-.45.15-.68,0-.89-.72-1.61-1.61-1.61-.02,0-.04,0-.06,0,.03-.4-.03-1.17-.82-1.51-.23-.1-.45-.15-.67-.15-.17,0-.34.03-.49.09-.16-.32-.43-.55-.79-.67-.2-.07-.39-.1-.58-.1-.33,0-.63.1-.9.29-.26-.32-.65-.51-1.06-.51-.36,0-.7.14-.96.4-.34-.26-1.67-1.1-5.23-1.91-.17-.04-.56-.15-.8-.22.33-1.6,1.35-3.06,2.86-4.26Zm6.61,9.28l-.04-.03h-.04s-.06.01-.11.04c-.18.13-.36.19-.53.19-.1,0-.2-.02-.3-.06-.83-.32-.76-1.1-.72-1.34,0-.05,0-.08-.04-.11l-.06-.05-.05.05c-.16.16-.37.24-.59.24-.47,0-.86-.39-.86-.86,0-.47.39-.86.86-.86.43,0,.79.32.85.75l.03.23.13-.19s.36-.55,1-.55c.12,0,.25.02.37.06.51.16.59.62.61.81,0,.11.09.12.1.12.04,0,.08-.03.1-.05.1-.1.3-.27.63-.27.15,0,.31.04.47.11.81.35.44,1.37.44,1.38-.07.17-.07.25,0,.29l.03.02h.02s.08-.02.16-.04c.11-.04.28-.09.43-.09h0c.61,0,1.1.5,1.1,1.1,0,.61-.5,1.1-1.1,1.1-.59,0-1.08-.46-1.1-1.05,0-.05,0-.19-.12-.19-.05,0-.09.03-.13.07-.13.12-.3.24-.54.24-.11,0-.23-.03-.36-.08-.63-.25-.64-.68-.61-.86,0-.05,0-.09-.02-.13Zm3.92,4.78c-7.46,0-13.51-3.87-13.51-8.65,0-.19.01-.38.03-.57.09.02.66.16.77.18,3.64.81,4.84,1.65,5.05,1.81-.07.17-.11.34-.11.52,0,.75.61,1.36,1.36,1.37.08,0,.17,0,.25-.02.11.55.48.97,1.03,1.19.16.06.33.09.49.09.1,0,.21-.01.31-.04.1.26.33.58.85.79.18.07.36.11.54.11.14,0,.28-.03.42-.07.25.6.83,1,1.49,1,.43,0,.85-.18,1.15-.49.26.14.81.41,1.36.41.07,0,.14,0,.21-.01.55-.07.81-.28.92-.45.02-.03.04-.06.06-.09.13.04.27.07.44.07.3,0,.59-.1.88-.32.29-.21.49-.5.52-.75,0,0,0,0,0-.01.1.02.2.03.29.03.31,0,.61-.1.9-.29.56-.37.66-.85.65-1.16.1.02.2.03.3.03.29,0,.58-.09.85-.26.35-.22.56-.56.59-.96.02-.27-.04-.54-.19-.77.94-.4,3.08-1.19,5.61-1.76.01.14.02.29.02.43,0,4.77-6.05,8.65-13.51,8.65Z"/><path d="m104.19,9.34c-.51-.64-1.28-.95-2.31-.95s-1.8.32-2.31.95c-.51.64-.76,1.39-.76,2.25s.25,1.64.76,2.26c.51.62,1.28.94,2.31.94s1.8-.31,2.31-.94c.51-.63.76-1.38.76-2.26s-.25-1.62-.76-2.25Zm-1.26,3.65c-.25.33-.6.49-1.06.49s-.81-.16-1.06-.49c-.25-.33-.37-.79-.37-1.39s.12-1.07.37-1.39c.25-.32.6-.49,1.06-.49s.81.16,1.06.49c.25.33.37.79.37,1.39s-.12,1.07-.37,1.39Z"/><path d="m92,12.55v-2.26c0-.73-.26-1.22-.77-1.48-.51-.26-1.1-.39-1.77-.39-1.02,0-1.74.27-2.16.8-.26.34-.41.77-.45,1.3h1.52c.04-.23.11-.42.22-.55.16-.18.42-.28.8-.28.34,0,.59.05.77.14.17.09.26.26.26.51,0,.2-.11.35-.34.45-.13.06-.34.1-.63.14l-.54.07c-.61.08-1.08.21-1.39.39-.58.33-.86.87-.86,1.61,0,.57.18,1.01.54,1.32.36.31.81.44,1.36.47,3.44.15,3.4-1.81,3.43-2.22Zm-1.57-.31c-.01.53-.16.89-.45,1.09-.29.2-.61.3-.95.3-.22,0-.4-.06-.55-.18-.15-.12-.23-.31-.23-.58,0-.3.12-.52.37-.67.15-.08.39-.16.73-.21l.36-.07c.18-.03.32-.07.42-.11.1-.04.2-.09.31-.15v.59Z"/><path d="m83.31,14.79c1.02,0,1.79-.34,2.31-1.03.33-.43.51-.88.55-1.36h-1.69c-.03.32-.13.57-.3.77-.16.2-.44.3-.83.3-.55,0-.92-.25-1.12-.75-.11-.27-.16-.62-.16-1.06s.05-.83.16-1.11c.21-.53.59-.79,1.15-.79.39,0,.68.12.87.36.13.18.21.38.24.61h1.7c-.09-.86-.39-1.45-.9-1.79-.51-.34-1.16-.51-1.95-.51-.94,0-1.67.29-2.2.86-.53.57-.8,1.38-.8,2.41,0,.91.24,1.66.72,2.23.48.57,1.23.86,2.25.86Z"/><path d="m78.18,14.65v-2.94c0-.48.06-.84.18-1.07.22-.41.64-.62,1.27-.62.05,0,.11,0,.19,0,.08,0,.16.01.26.02v-1.61c-.07,0-.12,0-.14,0-.02,0-.05,0-.07,0-3.49,0-3.28,3.09-3.28,3.09v3.14h1.58Z"/><path d="m70.82,14.07c.61.49,1.32.74,2.12.74.97,0,1.72-.29,2.26-.88.29-.31.47-.61.55-.91h-1.68c-.07.09-.14.18-.22.24-.22.18-.53.24-.88.24-.34,0-.6-.05-.84-.2-.39-.24-.62-.65-.64-1.26h4.38c0-.52-.01-.92-.05-1.19-.07-.47-.23-.89-.48-1.24-.27-.4-.62-.7-1.04-.89-.42-.19-.89-.28-1.41-.28-.88,0-1.6.28-2.15.83-.55.56-.83,1.35-.83,2.39,0,1.11.31,1.91.92,2.41Zm1.12-4c.22-.23.54-.34.94-.34.37,0,.68.11.93.32.25.22.39.53.42.95h-2.71c.06-.39.2-.7.42-.93Z"/><path d="m66.76,8.41c-.73,0-1.37.32-1.8.84-.41-.52-1.03-.84-1.8-.84-1.55,0-2.54,1.14-2.54,2.64v3.6h1.45v-3.64c0-.66.45-1.12,1.1-1.12.95,0,1.05.79,1.05,1.12v3.64h1.45v-3.64c0-.66.46-1.12,1.1-1.12.95,0,1.06.79,1.06,1.12v3.64h1.45v-3.6c0-1.55-.93-2.64-2.51-2.64Z"/><path d="m96.74,7.64v1.69c-.18-.28-.41-.51-.69-.66-.28-.16-.61-.24-.97-.24-.79,0-1.42.29-1.89.88s-.71,1.44-.71,2.46c0,.89.24,1.62.72,2.19.48.57,1.42.82,2.26.82,2.91,0,2.88-2.5,2.88-2.5v-5.75s-1.59-.17-1.59,1.11Zm-.3,5.35c-.23.33-.57.5-1.01.5s-.78-.17-.99-.5c-.22-.33-.33-.82-.33-1.37,0-.51.11-.95.32-1.29.21-.35.55-.52,1.01-.52.3,0,.57.09.79.29.37.32.56.88.56,1.62,0,.53-.12.95-.35,1.28Z"/><path d="m73.62,17.2c-1.09,0-1.68.29-2.07.58-.59.45-.95,1.12-.95,2.19v5.5h.79c.22,0,.4-.08.56-.23.16-.15.23-.34.23-.55v-2.06c.19.32.43.56.74.71.29.14.64.21,1.02.21.73,0,1.33-.29,1.79-.87.46-.6.7-1.38.7-2.34s-.22-1.65-.74-2.29c-.47-.57-1.33-.86-2.07-.86Zm.86,4.52c-.23.32-.55.48-.95.48-.43,0-.77-.16-1-.48-.23-.29-.35-.73-.35-1.31,0-.63.11-1.09.32-1.38.23-.32.56-.48.98-.48s.77.16,1,.48c.23.32.35.78.35,1.38,0,.55-.12.99-.35,1.31Z"/><path d="m87.53,17.78c-.54-.41-1.09-.62-2.03-.6-.96.03-1.66.29-2.09.88-.43.59-.65,1.36-.65,2.3,0,.81.16,1.46.49,1.96.33.5.72.84,1.18,1.02.46.18.92.22,1.38.12.46-.11.84-.37,1.11-.8v.39c-.03.49-.15.86-.35,1.1-.21.24-.44.39-.69.45-.25.05-.5.02-.75-.09-.25-.11-.44-.28-.56-.49h-1.67c.43,1.3,1.21,1.87,2.6,1.97,2.25.16,2.97-1.75,2.97-2.78v-3.23c0-1.07-.35-1.75-.94-2.2Zm-.66,3.18c-.06.36-.16.62-.3.79-.29.4-.74.54-1.35.43-.61-.12-.91-.7-.91-1.75,0-.49.09-.93.27-1.31.18-.38.53-.57,1.05-.57.38,0,.67.14.87.41.2.28.33.59.38.94.05.35.05.71-.01,1.07Z"/><path d="m81.4,17.62c-.51-.26-1.1-.39-1.77-.39-1.02,0-1.74.27-2.16.8-.26.34-.41.77-.44,1.3h1.52c.04-.23.11-.42.22-.55.16-.18.42-.28.8-.28.34,0,.59.05.77.14.17.09.26.26.26.51,0,.2-.11.35-.34.45-.13.06-.34.1-.63.14l-.54.07c-.61.08-1.08.21-1.39.39-.58.33-.86.87-.86,1.61,0,.57.18,1.01.54,1.32.36.31.81.44,1.36.47,3.44.15,3.4-1.81,3.43-2.22v-2.26c0-.73-.26-1.22-.77-1.48Zm-.8,3.44c-.01.53-.16.89-.45,1.09-.29.2-.61.3-.95.3-.22,0-.4-.06-.55-.18-.15-.12-.23-.31-.23-.58,0-.3.12-.52.37-.67.15-.08.39-.16.72-.22l.36-.07c.18-.03.32-.07.42-.11.1-.04.2-.09.31-.15v.59Z"/><path d="m92.14,17.16c-1.03,0-1.8.32-2.31.95-.51.64-.76,1.39-.76,2.25s.25,1.63.76,2.26c.51.62,1.28.94,2.31.94s1.8-.31,2.31-.94c.51-.63.76-1.38.76-2.26s-.25-1.62-.76-2.25c-.51-.64-1.28-.95-2.31-.95Zm1.05,4.6c-.25.33-.6.49-1.06.49s-.81-.16-1.06-.49c-.25-.33-.37-.79-.37-1.39s.12-1.07.37-1.39c.25-.33.6-.49,1.06-.49s.81.16,1.06.49.37.79.37,1.39-.12,1.07-.37,1.39Z"/></svg>