<?xml version="1.0" encoding="UTF-8"?><svg id="uuid-b0ada029-5359-4892-aeb6-518feff017c6" xmlns="http://www.w3.org/2000/svg" viewBox="0 0 98.88 32"><polygon points="43.44 6.35 40.31 25.71 45.32 25.71 48.45 6.35 43.44 6.35"/><path d="m58.54,14.12c-1.75-.89-2.82-1.48-2.82-2.39.02-.82.91-1.67,2.88-1.67,1.63-.04,2.82.35,3.73.74l.45.21.68-4.18h0c-.99-.39-2.55-.82-4.49-.82-4.94,0-8.42,2.64-8.45,6.41-.04,2.78,2.49,4.33,4.39,5.25,1.94.95,2.6,1.57,2.6,2.41-.02,1.3-1.57,1.89-3.01,1.89-2,0-3.07-.31-4.7-1.03l-.66-.31-.7,4.35c1.17.53,3.34,1.01,5.58,1.03,5.25,0,8.67-2.6,8.71-6.61.02-2.2-1.32-3.89-4.2-5.27Z"/><path d="m76.3,6.35h-3.87c-1.19,0-2.1.35-2.62,1.61l-7.44,17.75h5.25s.86-2.39,1.05-2.9h6.43c.14.68.6,2.9.6,2.9h4.64l-4.04-19.36Zm-6.18,12.5c.41-1.11,2-5.42,2-5.42-.02.04.41-1.13.66-1.85l.35,1.67s.95,4.63,1.15,5.6h-4.16Z"/><path d="m36.13,6.35h0s-4.9,13.2-4.9,13.2l-.54-2.68s0,0,0,0l-1.75-8.9c-.29-1.24-1.17-1.59-2.27-1.63h-8.05l-.08.39c1.96.5,3.72,1.23,5.26,2.13l4.46,16.82h5.29l7.87-19.34h-5.29Z"/></svg>