<?xml version="1.0" encoding="UTF-8"?><svg id="uuid-0fa335d4-fd16-4c04-8fcb-7a3085d03cd6" xmlns="http://www.w3.org/2000/svg" viewBox="0 0 75.83 32"><polygon points="29.73 13.19 32.26 13.19 31.07 10 29.73 13.19"/><path d="m21.86,9.31c-.54,0-1.43,0-1.43,0v1.8s1.16.02,1.54,0c.51-.03.82-.1,1.09-.3.25-.19.36-.66.28-.91-.16-.51-.72-.61-1.49-.6Z"/><path d="m62.48,11.48l-.02-.38c0-.06,0-.11-.02-.17l-.1-.46c-.08-.36-.19-.69-.32-1-.13-.3-.3-.59-.5-.87,0,0,0-.01-.01-.02-.41-.54-.91-1.01-1.48-1.4-1.18-.79-2.78-1.19-4.75-1.19-1.47,0-2.79.25-3.9.74-1.16.51-2.03,1.17-2.6,1.98-.03.04-.06.08-.08.12-.22-.4-.5-.76-.84-1.09-.62-.59-1.4-1.03-2.33-1.32-.51-.16-1-.28-1.46-.34-.44-.06-.97-.09-1.56-.09-1.11,0-2.11.13-2.99.39-.11.03-.22.07-.33.11-.14.02-.27.07-.39.14-.61.25-1.17.57-1.65.97-.79.65-1.36,1.41-1.7,2.28l-1.43-3.08c-.16-.35-.51-.57-.89-.57h-4.04c-.37,0-.71.21-.88.54l-.68,1.33c-.15-.21-.34-.4-.54-.58-.52-.44-1.22-.77-2.07-.98-.75-.21-1.68-.31-2.83-.31h-5.79c-.53,0-.97.43-.98.97l-.22,8.83c0,.27.09.52.28.71.13.13.29.22.46.27.08.02.16.03.25.03h12.34c.4,0,.77-.26.92-.63l.22-.55h2.62s.21.54.21.54c.15.38.51.63.92.63h3.94c.34,0,.65-.18.83-.46.01-.02.03-.05.04-.07,1.05.51,2.3.77,3.73.77,1.15,0,2.18-.19,3.04-.56,0,0,0,0,0,0,.18.21.45.34.75.34h2.52c.53,0,.97-.43.98-.96,0,0,.69-.31,1.09-.04,1.19.81,2.81,1.21,4.8,1.21,1.46,0,2.77-.25,3.9-.75,1.17-.52,2.07-1.23,2.66-2.12.61-.9.91-1.88.89-2.9,0,0,0-.02,0-.03Zm-14.04,4.79h-2.83s-.13-.72-.13-.72c-.9.63-2.08.95-3.52.95-1.57,0-2.89-.33-3.92-.99-.59-.38-1.05-.82-1.39-1.34l.97,2.08h-4.33s-.46-1.17-.46-1.17h-3.73s-.47,1.18-.47,1.18h-4.25s1.88-3.66,1.88-3.66c-.87.61-2.22.91-4.03.91h-1.86s-.06,2.76-.06,2.76h-4.3s.23-9.16.23-9.16h5.96c1.06,0,1.94.09,2.62.28.72.17,1.31.45,1.74.81.44.37.72.84.85,1.41.04.19.06.41.06.64l1.62-3.15h4.26s2.85,6.11,2.85,6.11c-.03-.1-.06-.21-.08-.31l-.11-.59v-.48c.05-1.43.64-2.62,1.77-3.54.58-.47,1.28-.83,2.08-1.07.8-.24,1.73-.36,2.76-.36.55,0,1.04.03,1.45.08.41.05.86.16,1.32.31.81.25,1.49.63,2.02,1.13.53.51.88,1.12,1.03,1.83l.06.26h-4.09s-.04-.11-.04-.11c-.26-.68-.87-1-1.86-1-.71,0-1.25.2-1.6.59-.47.51-.65,1.38-.54,2.58.22,1,.96,1.48,2.25,1.48.4,0,.86-.1,1.2-.27.29-.15.58-.5.74-.74l-1.78.05.04-1.97h5.76s-.14,5.21-.14,5.21Zm12.6-2.29c-.51.76-1.29,1.37-2.32,1.82-1.02.45-2.22.68-3.57.68-.95,0-1.8-.1-2.54-.29-.69-.18-1.29-.44-1.8-.78-1.06-.72-1.72-1.62-1.95-2.69v-.02s-.03-.34-.03-.34l-.06-.78c.05-.89.32-1.68.8-2.36.48-.68,1.24-1.25,2.26-1.7,1.01-.44,2.22-.67,3.58-.67,1.81,0,3.25.35,4.3,1.05.5.34.93.74,1.29,1.21.17.23.31.47.42.72.11.25.2.53.27.84l.1.49.02.38c.01.86-.24,1.68-.76,2.44Z"/><path d="m56.74,9.76c-.34-.28-.82-.42-1.43-.42h0c-.7,0-1.24.2-1.6.58-.46.5-.66,1.35-.57,2.52.23,1.05.91,1.56,2.06,1.55.93,0,1.55-.31,1.91-.95.36-.65.47-1.36.3-2.13-.11-.49-.33-.88-.67-1.16Z"/><path d="m50.79,18.33c-2.05.92-3.85,2.52-4.99,4.45-.06.11-.15.21-.25.27-.84.54-1.68,1.07-2.53,1.61-.08.05-.17.08-.25.1-.07.02-.17.02-.21-.02-.04-.04-.02-.14-.02-.21,0-.04.02-.08.04-.11.23-.4.43-.82.69-1.19.25-.37.56-.7.85-1.05.07-.09.14-.19-.02-.24-.38-.11-.7-.14-1.03.21-.14.15-.25.33-.41.45-.85.61-1.7,1.21-2.58,1.78-.54.35-1.14.58-1.8.6-.19,0-.28-.07-.25-.26.03-.15.07-.31.14-.44.36-.71.89-1.27,1.57-1.7.29-.18.6-.32.96-.35-.02.09-.04.18-.1.23-.23.19-.48.36-.71.55-.05.04-.09.11-.13.17.07.04.14.12.21.11.2,0,.41-.02.6-.08.48-.14.87-.41,1.08-.88.15-.33.02-.58-.33-.67-.04-.01-.09-.02-.14-.02-.82-.05-1.52.32-2.22.66-.17.08-.31.23-.46.34-.86.61-1.72,1.22-2.59,1.82-.11.08-.24.14-.38.21,0-.06,0-.08.01-.1.14-.24.27-.5.43-.72.36-.48.74-.95,1.11-1.42.07-.1.12-.2.04-.31-.15-.2-.36-.25-.59-.14-.13-.31-.38-.31-.65-.23-.24.07-.49.15-.71.27-1.09.58-1.97,1.41-2.68,2.41-.19.27-.37.55-.41.89-.05.42.35.82.75.64.15-.07.32-.12.44-.23.41-.34.8-.7,1.19-1.05.05-.05.07-.13.11-.19.02.02.05.04.07.06,0,.08-.02.17-.02.25-.01.22-.04.45-.02.67.03.39.28.52.61.32.37-.23.73-.49,1.08-.75.3-.23.59-.48.9-.73-.03.16-.06.28-.07.41-.07.77.27,1.27,1.14,1.1.29-.06.58-.15.86-.26.84-.35,1.59-.86,2.32-1.41.14-.11.29-.22.47-.36-.08.18-.15.32-.21.45-.1.24-.16.48-.13.74.04.42.27.67.68.73.33.05.66,0,.93-.19.54-.37,1.06-.76,1.59-1.14.15-.11.29-.24.42-.35,0,.25,0,.5.02.74.07.68.44.97,1.11.82.26-.06.52-.17.74-.32,1.31-.85,2.44-1.93,3.57-2.99.13-.12.12-.22-.01-.39-.06.04-.1.08-.15.11-.78.57-1.56,1.16-2.35,1.72-.5.36-1.02.7-1.61.91-.29.1-.41.02-.41-.28,0-.33.16-.59.4-.8.22-.19.45-.36.69-.52,1.19-.84,2.32-1.74,3.3-2.83.31-.35.79-.89,1.07-1.27.09-.11.1-.24.02-.37-.21-.35-.4-.42-.78-.24Zm-17.33,6.5s-.03-.03-.05-.04c.03-.07.05-.15.09-.21.58-.83,1.29-1.52,2.2-1.99.14-.07.3-.1.45-.15,0,.02.02.05.03.07-.89.79-1.73,1.65-2.72,2.32Zm13.77-2.55c.87-1.14,1.88-2.15,3.04-3-.13.48-2.63,2.96-3.04,3Z"/><path d="m33.95,21.89c-.04-.14-.07-.29-.14-.41-.05-.08-.15-.14-.24-.18-.13-.06-.28-.11-.42-.14-.58-.12-1.17-.08-1.76-.04-.16.01-.31.02-.51.03.05-.07.07-.09.09-.11.49-.46.98-.92,1.48-1.37.24-.22.24-.23,0-.49.19-.02.35-.05.52-.06,1.2-.06,2.4-.12,3.59-.17.3-.01.6-.02.9-.04.05,0,.09-.04.14-.06-.02-.05-.04-.1-.07-.14-.32-.34-.69-.61-1.14-.75-.61-.19-1.24-.25-1.88-.26-1.3-.02-2.6.14-3.88.36-.28.05-.56.1-.87.16.06-.08.11-.14.18-.24-.14,0-.23-.02-.32,0-.35.09-.71.18-1.05.29-.26.09-.52.2-.77.34-.22.12-.25.27-.15.51.1.23.29.36.51.37.41.02.83.01,1.24-.02.74-.07,1.48-.16,2.22-.24.07,0,.15,0,.22,0,0,.01,0,.02,0,.04-.14.1-.29.2-.42.31-.62.54-1.24,1.07-1.86,1.62-.15.14-.32.22-.52.25-.29.05-.58.1-.86.18-.22.06-.27.22-.18.42.05.11.1.22.17.32.09.13.07.22-.04.34-.55.61-1,1.29-1.18,2.11-.03.11-.05.26,0,.35.16.26.42.39.69.47.08-.21.14-.41.23-.58.09-.19.21-.36.33-.53.36-.51.73-1.01,1.08-1.53.19-.27.43-.43.75-.48,1.2-.18,2.4-.35,3.61-.53.11-.02.21-.05.32-.08Z"/><path d="m36.59,20.9c-.04.06-.04.17-.01.23.03.05.15.08.21.06.35-.1.7-.2,1.03-.34.37-.16.69-.39.92-.73.08-.12.12-.27.19-.43-.08-.18-.12-.37-.22-.51-.16-.22-.43-.19-.56.06-.32.6-.79,1.06-1.34,1.44-.08.06-.17.13-.22.22Z"/><path d="m44.64,20.92s.1-.02.16-.04c.34-.12.59-.35.8-.63.12-.16.11-.27,0-.44-.11-.16-.25-.17-.39-.08-.21.12-.42.24-.59.41-.13.13-.22.32-.28.5-.06.17.08.3.3.29Z"/></svg>