<?xml version="1.0" encoding="UTF-8"?><svg id="uuid-656e127b-92e9-41b3-84f9-8b5a5c40ee87" xmlns="http://www.w3.org/2000/svg" viewBox="0 0 120.09 32"><path d="m40.19,11.41s-.05,0-.08,0h-2.8c-.24,0-.44.17-.48.41l-.12.78-.2-.28c-.61-.88-1.95-1.17-3.3-1.17-3.09,0-5.73,2.34-6.24,5.62-.27,1.64.11,3.2,1.04,4.29.85,1,2.07,1.42,3.52,1.42,2.49,0,3.87-1.6,3.87-1.6l-.12.78c-.04.27.14.51.4.56.03,0,.05,0,.08,0h2.52c.4,0,.74-.29.8-.69l1.51-9.57c.04-.26-.14-.51-.4-.56Zm-3.97,5.43c-.27,1.6-1.54,2.67-3.15,2.67-.81,0-1.46-.26-1.88-.75-.41-.49-.57-1.19-.44-1.96.25-1.58,1.54-2.69,3.13-2.69.79,0,1.44.26,1.86.76.43.5.6,1.2.47,1.98Z"/><path d="m26.91,7.49c-.83-.97-2.3-1.49-4.26-1.49h-5.84c-.4,0-.74.29-.8.68l-2.36,14.97c-.04.27.14.51.41.56.03,0,.05,0,.08,0h2.79c.4,0,.74-.29.8-.69l.64-4.04c.06-.39.4-.69.8-.69h1.85c3.85,0,6.06-1.86,6.64-5.55.26-1.61.01-2.88-.74-3.77Zm-3.58,3.98c-.32,2.09-1.92,2.09-3.47,2.09h-.88l.62-3.91c.04-.24.24-.41.48-.41h.4c1.05,0,2.05,0,2.56.6.31.36.4.89.28,1.63Z"/><path d="m55.28,11.49c-.08-.06-.18-.09-.28-.09h-2.81c-.27,0-.52.13-.67.36l-3.87,5.71-1.64-5.48c-.1-.34-.42-.58-.78-.58h-2.76c-.27,0-.49.22-.49.49,0,.05,0,.11.03.16l3.09,9.08-2.91,4.11c-.16.22-.1.52.11.68.08.06.18.09.28.09h2.81c.27,0,.52-.13.67-.35l9.34-13.49c.15-.22.1-.52-.12-.68Z"/><path d="m68.55,7.49c-.83-.97-2.3-1.49-4.25-1.49h-5.84c-.4,0-.74.29-.8.68l-2.36,14.97c-.04.26.14.51.4.56.03,0,.05,0,.08,0h3c.28,0,.52-.2.56-.48l.67-4.24c.06-.39.4-.69.8-.69h1.85c3.85,0,6.06-1.86,6.65-5.55.26-1.61.01-2.88-.75-3.77Zm-3.58,3.98c-.32,2.09-1.92,2.09-3.47,2.09h-.88l.62-3.91c.04-.24.24-.41.48-.41h.4c1.05,0,2.05,0,2.56.6.31.36.4.89.28,1.63Z"/><path d="m81.82,11.41s-.05,0-.07,0h-2.79c-.24,0-.44.17-.48.41l-.12.78-.2-.28c-.61-.88-1.95-1.17-3.3-1.17-3.09,0-5.73,2.34-6.24,5.62-.27,1.64.11,3.2,1.04,4.29.85,1,2.07,1.42,3.52,1.42,2.49,0,3.87-1.6,3.87-1.6l-.12.78c-.04.27.14.51.4.56.03,0,.05,0,.08,0h2.52c.4,0,.74-.29.8-.69l1.51-9.57c.04-.27-.14-.51-.41-.56Zm-3.97,5.44c-.27,1.6-1.54,2.67-3.15,2.67-.81,0-1.46-.26-1.88-.75-.41-.49-.57-1.19-.44-1.96.25-1.58,1.54-2.69,3.13-2.69.79,0,1.44.26,1.86.76.43.5.6,1.2.47,1.98Z"/><path d="m88.3,6.01s-.05,0-.08,0h-2.7c-.24,0-.44.18-.48.41l-2.4,15.24c-.04.26.14.51.4.56.03,0,.05,0,.08,0h2.41c.4,0,.74-.29.8-.69l2.36-14.97c.04-.27-.14-.51-.4-.56Z"/></svg>