<?xml version="1.0" encoding="UTF-8"?><svg id="uuid-d73e33cb-1981-4b08-9b4a-9a9a1fd3455f" xmlns="http://www.w3.org/2000/svg" viewBox="0 0 125.01 32"><path d="m67.69,17.69l-1.87-5.9-1.83,5.9h3.7Zm-.1-7.84l4.22,12.47h-2.65l-.84-2.58h-4.96l-.86,2.58h-2.65l3.9-11.51c.19-.57.73-.95,1.33-.95h2.53Z"/><path d="m79.63,19.15c0,.92-.48,1.22-1.63,1.22h-2.59v-3.41h2.81c1,0,1.41.41,1.41,1.25v.94Zm-4.22-7.36h2.43c.92,0,1.33.32,1.33,1.01v1.1c0,.73-.36,1.16-1.35,1.16h-2.41v-3.28Zm4.8,4.02c1.02-.41,1.49-.99,1.49-2.02v-1.29c0-1.68-1.02-2.66-3.56-2.66h-5.26v12.47h5.63c2.43,0,3.66-1.1,3.66-2.86v-1.33c0-1.22-.72-2.06-1.95-2.3"/><path d="m55.23,11.6h3.64v-.9c0-.68-.55-1.24-1.24-1.24h-2.4c-3.25.03-4.65,1.35-4.65,3.61v5.61c0,2.26,1.4,3.58,4.65,3.61h0s3.5,0,3.5,0v-.91c0-.68-.55-1.23-1.23-1.23h-2.27c-1.59-.05-2.12-.61-2.12-1.89v-4.79c0-1.28.53-1.84,2.12-1.88"/><path d="m98.12,20.24v-10.57h-1.13c-.77,0-1.4.63-1.4,1.4v11.25h8.03v-2.08h-5.5Z"/><path d="m90.57,17.69l-1.87-5.9-1.83,5.9h3.7Zm-.1-7.84l4.22,12.47h-2.65l-.84-2.58h-4.96l-.86,2.58h-2.65l3.78-11.16c.26-.78,1-1.3,1.82-1.3h2.16Z"/><path d="m36.83,6l9.24,9.08c.52.51.52,1.34,0,1.85l-9.24,9.08v-5.07s4.34-4.28,4.34-4.28c.36-.35.36-.93,0-1.28l-4.35-4.3v-5.06Z"/><path d="m35.12,6l-9.24,9.08c-.52.51-.52,1.34,0,1.85l9.24,9.08v-5.07s-4.34-4.28-4.34-4.28c-.36-.35-.36-.93,0-1.28l4.35-4.3v-5.06Z"/></svg>