<?xml version="1.0" encoding="UTF-8"?><svg id="uuid-8973b831-d5e2-490d-a4c5-ddae5e829e05" xmlns="http://www.w3.org/2000/svg" viewBox="0 0 88.22 32"><polygon points="53.34 8.58 52.42 10.84 54.25 10.84 53.34 8.58"/><polygon points="16.26 10.84 18.09 10.84 17.17 8.58 16.26 10.84"/><path d="m40.14,8.52h-1.85v1.36h1.88c.32,0,.74-.25.74-.68,0-.33-.32-.68-.77-.68Z"/><path d="m39.23,13.29l1.11,1.36h5.59v-.96s.95.96,2.43.96h3.71l.54-1.36h1.47l.55,1.36h5.46v-1.54l.98,1.54h3.75V6h-3.75v1.53l-1.02-1.53h-3.72v2.69l-1.15-2.66-6.47-.02c-1.72,0-2.77.98-2.77.98v-.98h-19.95l-.68,1.95-.7-1.95h-4.44v2.7l-1.17-2.7h-3.57l-2.07,4.82v3.84h2.55l.55-1.36h1.46l.55,1.36h20.77v-1.36Zm18.17-6.23h2.06l2.63,4.07v-4.07h1.62v6.48h-1.99l-2.7-4.18v4.18h-1.62v-6.48Zm-5.09,0h2.11l2.79,6.48h-1.86l-.51-1.3h-2.99l-.51,1.3h-1.82l2.79-6.48h0Zm-3.44,0h1.79v1.54h-1.86c-.89,0-1.51.69-1.51,1.75,0,1.26.72,1.78,1.75,1.78h.43l-.68,1.42h-.36c-1.73,0-2.78-1.36-2.78-3.21s1.04-3.27,3.22-3.27Zm-5.66,0h1.65v6.48h-1.65v-6.48Zm-24.02,6.48l-.51-1.3h-2.99l-.51,1.3h-1.82l2.79-6.48h0s2.11,0,2.11,0l2.79,6.48h-1.86Zm10.15,0h-1.62v-4.78l-1.72,4.78h-1.42l-1.72-4.78v4.78h-1.62v-6.48h2.58s1.5,4.19,1.5,4.19l1.46-4.19h2.56v6.48Zm6.4-5.03h-3.65v1.11h3.57v1.36h-3.57v1.15h3.65v1.41h-5.29v-6.48h5.29v1.45Zm2.56,2.73v2.3h-1.62v-6.48h0s3.61,0,3.61,0c1.19,0,2.27.74,2.27,2.1,0,1.17-.9,1.92-1.78,1.99l2.13,2.39h-1.98l-1.94-2.3h-.68Z"/><path d="m47.99,19.86h-1.85v1.36h1.88c.32,0,.74-.25.74-.68,0-.33-.32-.68-.77-.68Z"/><path d="m65.13,19.87c-.52,0-.68.27-.68.54s.2.57.6.57h1.54c1.04,0,1.65.43,1.9,1.08v-3.5l-.62,1.32h-2.73Z"/><path d="m41.37,19.88h-1.8v1.49h1.79c.47,0,.8-.31.8-.75,0-.46-.33-.75-.8-.75Z"/><path d="m35.21,17.34l-1.02,1.28-.98-1.28h-9.17v8.66h9.11l1-1.31.98,1.31h5.5v-2h1.24c1.07,0,1.57-.33,1.57-.33v2.33h3.63v-1.36l1.11,1.36h18.42c1.01,0,1.88-.6,1.88-.6v-1.75c-.26.73-.92,1.24-1.98,1.24h-3.45v-1.41h3.24c.48,0,.69-.26.69-.54s-.21-.55-.69-.55h-1.47c-1.27,0-1.98-.78-1.98-1.94,0-1.04.65-2.04,2.54-2.04h3.09v-1.07h-33.27Zm-4.77,2.52h-3.65v1.11h3.57v1.36h-3.57v1.15h3.65v1.41h-5.29v-6.48h5.29v1.45Zm7.27,5.03h-2.04l-1.52-2-1.49,2h-2.01s2.57-3.2,2.57-3.2l-2.64-3.28h2.04l1.57,2.03,1.58-2.03h1.96l-2.6,3.24,2.58,3.24Zm3.56-2.05h-1.71v2.05h-1.66v-6.48h3.58c1.47,0,2.33.95,2.33,2.18,0,1.49-1.09,2.25-2.54,2.25Zm7.49,2.05l-1.94-2.3h-.68v2.3h-1.62v-6.48h0s3.61,0,3.61,0c1.19,0,2.27.74,2.27,2.1,0,1.17-.9,1.92-1.78,1.99l2.13,2.39h-1.98Zm7.59-5.03h-3.65v1.11h3.55v1.36h-3.55v1.15h3.65v1.41h-5.29v-6.48h5.29v1.45Zm4.2,5.03h-3.45v-1.41h3.24c.48,0,.69-.26.69-.54s-.21-.55-.69-.55h-1.47c-1.27,0-1.98-.78-1.98-1.94,0-1.04.65-2.04,2.54-2.04h3.16l-.68,1.46h-2.73c-.52,0-.68.27-.68.54s.2.57.6.57h1.54c1.42,0,2.04.81,2.04,1.86,0,1.13-.69,2.06-2.11,2.06Z"/></svg>