<?xml version="1.0" encoding="UTF-8"?><svg id="uuid-e5fec338-8c46-44a4-9a19-df11a0095335" xmlns="http://www.w3.org/2000/svg" viewBox="0 0 133.69 32"><path d="m63.12,12.78c-.69-.56-1.55-.87-2.44-.88-.01,0-.03,0-.04,0-2.64.03-4.76,2.19-4.73,4.83-.02,1.2.42,2.37,1.23,3.26.88,1.03,2.18,1.61,3.54,1.59.89-.01,1.75-.32,2.44-.88v.58h2.33v-9.08s-2.33,0-2.33,0v.58Zm-.5,5.75c-.44.61-1.15.95-1.9.93-.65.01-1.27-.25-1.72-.71-.49-.49-.73-1.17-.73-2.02,0-.73.18-1.33.54-1.79.44-.59,1.13-.93,1.87-.92.66-.03,1.29.23,1.75.7.48.5.72,1.17.72,2,.03.64-.16,1.28-.53,1.81Z"/><path d="m72.06,11.9c-.77,0-1.52.28-2.11.78v-.48h-2.33v9.08h2.33v-4.53c0-1.06.14-1.75.42-2.1.34-.42.85-.63,1.52-.63.46-.02.9.16,1.21.49.3.34.45,1.02.45,2.04v4.73h2.33v-4.89c0-1.55-.29-2.53-1-3.28-.73-.78-1.75-1.21-2.82-1.21Z"/><polygon points="34.53 17.12 27.42 7.63 25.32 7.63 25.32 21.28 27.75 21.28 27.75 11.79 34.85 21.28 36.94 21.28 36.94 7.63 34.53 7.63 34.53 17.12"/><path d="m52.53,12.79v-.59h-2.33v9.08h2.33v-4.38c0-1.01.13-1.7.39-2.09.26-.38.73-.57,1.41-.57.2,0,.48,0,.84.04v-2.09c-.29-.04-.57-.06-.86-.06-.65,0-1.29.23-1.78.66Z"/><path d="m45.7,12.78c-.69-.56-1.55-.87-2.44-.88-.01,0-.03,0-.04,0-2.64.03-4.76,2.19-4.73,4.83-.02,1.2.42,2.37,1.23,3.26.88,1.03,2.18,1.61,3.54,1.59.89-.01,1.75-.32,2.44-.88v.58h2.33v-9.08h-2.33v.58Zm-.5,5.75c-.44.61-1.15.95-1.9.93-.65.01-1.27-.25-1.72-.71-.49-.49-.73-1.17-.73-2.02,0-.73.18-1.33.54-1.79.44-.59,1.14-.93,1.87-.92.66-.03,1.29.23,1.75.7.48.5.72,1.17.72,2,.03.64-.16,1.28-.53,1.81Z"/><path d="m79.44,7.69c-.39,0-.77.14-1.05.41-.28.26-.44.63-.43,1.01,0,.39.15.76.43,1.03.27.28.64.43,1.03.42.39,0,.77-.14,1.04-.42.27-.27.43-.64.42-1.02,0-.38-.15-.74-.42-1.01-.27-.27-.64-.42-1.02-.42Z"/><path d="m108.73,7.4c-.11-.13-.27-.2-.43-.19-.14,0-.28.05-.38.15-.12.11-.19.26-.18.42,0,.16.05.31.16.42.22.22.57.23.8.02.12-.11.19-.27.19-.43,0-.14-.05-.28-.15-.39Zm-.09.69s0,0,0,0h0c-.17.18-.45.2-.64.03-.09-.08-.15-.2-.15-.33,0-.11.04-.23.12-.31.08-.1.2-.15.33-.15.11,0,.23.04.31.12.19.17.2.45.03.64Z"/><path d="m78.25,21.65c0,.35-.16,1.96-2.28,2.1v2.25s4.42-.07,4.61-4.15v-9.66h-2.32v9.46Z"/><path d="m89.4,12.78c-.69-.56-1.55-.87-2.44-.88-.01,0-.03,0-.04,0-2.64.03-4.76,2.19-4.73,4.83-.02,1.2.42,2.37,1.23,3.26.88,1.03,2.18,1.61,3.54,1.59.89-.01,1.75-.32,2.44-.88v.58h2.33v-9.08s-2.33,0-2.33,0v.58Zm-.5,5.75c-.44.61-1.15.95-1.9.93-.65.01-1.27-.25-1.72-.71-.49-.49-.73-1.17-.73-2.02,0-.73.18-1.33.54-1.79h0c.44-.59,1.14-.93,1.87-.92.66-.03,1.29.23,1.75.7.48.5.72,1.17.72,2,.03.64-.16,1.28-.53,1.81Z"/><path d="m108.39,7.97h0s-.05.02-.08.02c-.05,0-.11-.02-.14-.06-.04-.04-.06-.09-.06-.15,0-.05.02-.11.06-.15.04-.04.09-.06.14-.06.07,0,.1.02.16.09l.1-.1c-.07-.08-.16-.13-.27-.13-.19,0-.34.15-.34.34,0,0,0,0,0,0,0,.08.03.17.09.23.06.07.16.12.26.11.1,0,.19-.04.25-.11l.02-.02-.1-.1s-.06.06-.09.08Z"/><path d="m102.76,13.26h0l-4.54-7.06c-.08-.13-.23-.2-.38-.2h-3.03c-.08,0-.15.07-.15.16,0,.03,0,.05.02.08l4.74,7.36c.03.05.03.11,0,.16l-4.74,7.34c-.05.07-.02.17.05.21.02.02.05.02.08.02h3.03c.15,0,.29-.08.37-.2l4.54-7.03c.16-.25.16-.57,0-.83Z"/><path d="m103.69,14.7c-.05-.07-.14-.09-.21-.04-.02.01-.03.03-.04.04l-1.25,1.93c-.24.38-.24.86,0,1.24l2.13,3.28c.07.11.19.17.32.17h3.14c.06,0,.11-.05.11-.11,0-.02,0-.04-.02-.06l-4.17-6.45Z"/><path d="m103.44,12.63c.05.07.14.09.21.04.02-.01.03-.03.04-.04l4.17-6.45c.03-.05.02-.12-.03-.16-.02-.01-.04-.02-.06-.02h-3.14c-.13,0-.25.07-.32.17l-2.13,3.28c-.24.38-.24.86,0,1.24l1.25,1.93Z"/></svg>