<?xml version="1.0" encoding="UTF-8"?><svg id="uuid-d65fdfd6-ab5f-4f11-b2a1-40ea115d1ced" xmlns="http://www.w3.org/2000/svg" viewBox="0 0 179.14 32"><path d="m90.97,19.37v-4.17c0-1.57-1-2.63-2.62-2.64-.85-.01-1.73.25-2.34,1.18-.46-.74-1.18-1.18-2.2-1.18-.71,0-1.41.21-1.95.99v-.82h-1.45v6.65h1.46v-3.69c0-1.15.64-1.77,1.63-1.77s1.45.63,1.45,1.75v3.7h1.46v-3.69c0-1.15.67-1.77,1.63-1.77s1.46.63,1.46,1.75v3.7h1.46Zm21.62-6.65h-2.37v-2.02h-1.46v2.02h-1.35v1.32h1.35v3.03c0,1.54.6,2.46,2.31,2.46.63,0,1.35-.19,1.81-.51l-.42-1.24c-.43.25-.9.38-1.28.38-.72,0-.96-.45-.96-1.11v-3.01h2.37v-1.32Zm12.34-.17c-.83,0-1.38.39-1.75.97v-.81h-1.43v6.65h1.45v-3.73c0-1.1.47-1.71,1.42-1.71.29,0,.6.04.9.17l.45-1.36c-.32-.13-.74-.18-1.03-.18h0Zm-18.66.7c-.7-.46-1.66-.7-2.71-.7-1.68,0-2.77.81-2.77,2.13,0,1.09.81,1.75,2.3,1.96l.68.1c.79.11,1.17.32,1.17.7,0,.51-.53.81-1.52.81s-1.73-.32-2.21-.7l-.68,1.13c.79.58,1.79.86,2.88.86,1.92,0,3.03-.9,3.03-2.17,0-1.17-.88-1.78-2.32-1.99l-.68-.1c-.63-.08-1.13-.21-1.13-.65,0-.49.47-.78,1.27-.78.85,0,1.67.32,2.07.57l.63-1.17Zm38.76-.7c-.83,0-1.38.39-1.75.97v-.81h-1.43v6.65h1.45v-3.73c0-1.1.47-1.71,1.42-1.71.29,0,.6.04.9.17l.45-1.36c-.32-.13-.74-.18-1.03-.18h0Zm-18.64,3.49c0,2.02,1.41,3.49,3.55,3.49,1,0,1.67-.22,2.39-.79l-.7-1.17c-.54.39-1.11.6-1.74.6-1.15-.01-2-.85-2-2.13s.85-2.11,2-2.13c.63,0,1.2.21,1.74.6l.7-1.17c-.72-.57-1.39-.79-2.39-.79-2.14,0-3.55,1.47-3.55,3.49h0Zm13.55,0v-3.33h-1.45v.81c-.46-.6-1.15-.97-2.1-.97-1.86,0-3.33,1.46-3.33,3.49s1.46,3.49,3.33,3.49c.95,0,1.64-.38,2.1-.97v.81h1.45v-3.33Zm-5.38,0c0-1.17.77-2.13,2.02-2.13s2,.92,2,2.13-.81,2.13-2,2.13-2.02-.96-2.02-2.13h0Zm-17.46-3.49c-1.95,0-3.31,1.42-3.31,3.49s1.42,3.49,3.41,3.49c1,0,1.92-.25,2.73-.93l-.71-1.07c-.56.45-1.27.7-1.93.7-.93,0-1.78-.43-1.99-1.63h4.94c.01-.18.03-.36.03-.56-.01-2.07-1.29-3.49-3.16-3.49h0Zm-.03,1.29c.93,0,1.53.58,1.68,1.61h-3.45c.15-.96.74-1.61,1.77-1.61h0Zm36.3,2.2v-6h-1.45v3.48c-.46-.6-1.15-.97-2.1-.97-1.86,0-3.33,1.46-3.33,3.49s1.46,3.49,3.33,3.49c.95,0,1.64-.38,2.1-.97v.81h1.45v-3.33Zm-5.38,0c0-1.17.77-2.13,2.02-2.13s2,.92,2,2.13-.81,2.13-2,2.13-2.02-.96-2.02-2.13h0Zm-48.86,0v-3.33h-1.45v.81c-.46-.6-1.15-.97-2.1-.97-1.86,0-3.33,1.46-3.33,3.49s1.46,3.49,3.33,3.49c.95,0,1.64-.38,2.1-.97v.81h1.45v-3.33Zm-5.38,0c0-1.17.77-2.13,2.02-2.13s2,.92,2,2.13-.81,2.13-2,2.13-2.02-.96-2.02-2.13Zm-37.04,8.09c.08.07.16.13.24.2-1.59,1.06-3.49,1.67-5.54,1.67-5.52,0-10-4.48-10-10s4.48-10,10-10c2.05,0,3.95.62,5.54,1.67-.08.07-.16.13-.24.2-2.36,2.05-3.71,5.01-3.71,8.13s1.35,6.08,3.71,8.13Zm7.07-18.13c-2.05,0-3.95.62-5.54,1.67.08.07.16.13.24.2,2.36,2.05,3.71,5.01,3.71,8.13s-1.35,6.08-3.71,8.13c-.08.07-.16.13-.24.2,1.59,1.06,3.49,1.67,5.54,1.67,5.52,0,10-4.48,10-10s-4.48-10-10-10Zm-6.18,2.14c-.13.1-.26.21-.38.31-2.11,1.83-3.44,4.53-3.44,7.54s1.33,5.71,3.44,7.54c.12.11.25.21.38.31.13-.1.26-.21.38-.31,2.11-1.83,3.44-4.53,3.44-7.54s-1.33-5.71-3.44-7.54c-.12-.11-.25-.21-.38-.31"/></svg>